<svg width="14" height="14" viewBox="0 0 14 14" fill="none" xmlns="http://www.w3.org/2000/svg">
<path d="M7 3.0625C7.11603 3.0625 7.22731 3.10859 7.30936 3.19064C7.39141 3.27269 7.4375 3.38397 7.4375 3.5V6.5625H10.5C10.616 6.5625 10.7273 6.60859 10.8094 6.69064C10.8914 6.77269 10.9375 6.88397 10.9375 7C10.9375 7.11603 10.8914 7.22731 10.8094 7.30936C10.7273 7.39141 10.616 7.4375 10.5 7.4375H7.4375V10.5C7.4375 10.616 7.39141 10.7273 7.30936 10.8094C7.22731 10.8914 7.11603 10.9375 7 10.9375C6.88397 10.9375 6.77269 10.8914 6.69064 10.8094C6.60859 10.7273 6.5625 10.616 6.5625 10.5V7.4375H3.5C3.38397 7.4375 3.27269 7.39141 3.19064 7.30936C3.10859 7.22731 3.0625 7.11603 3.0625 7C3.0625 6.88397 3.10859 6.77269 3.19064 6.69064C3.27269 6.60859 3.38397 6.5625 3.5 6.5625H6.5625V3.5C6.5625 3.38397 6.60859 3.27269 6.69064 3.19064C6.77269 3.10859 6.88397 3.0625 7 3.0625Z" fill="#1F1F25"/>
</svg>
