<svg width="16" height="16" viewBox="0 0 16 16" fill="none" xmlns="http://www.w3.org/2000/svg">
<path d="M9.17506 8.00022L15.2501 1.92522C15.3866 1.7658 15.4579 1.56074 15.4498 1.35101C15.4417 1.14128 15.3548 0.942327 15.2064 0.793915C15.058 0.645503 14.859 0.558559 14.6493 0.550458C14.4395 0.542357 14.2345 0.613696 14.0751 0.750218L8.00006 6.82522L1.92506 0.741884C1.76564 0.605362 1.56058 0.534024 1.35085 0.542125C1.14112 0.550226 0.942169 0.63717 0.793757 0.785582C0.645345 0.933994 0.558401 1.13294 0.5503 1.34267C0.542199 1.5524 0.613538 1.75747 0.75006 1.91688L6.82506 8.00022L0.741726 14.0752C0.654491 14.1499 0.583641 14.2419 0.533622 14.3452C0.483602 14.4486 0.455493 14.5612 0.45106 14.676C0.446628 14.7908 0.465966 14.9052 0.507861 15.0122C0.549757 15.1191 0.613305 15.2162 0.694518 15.2974C0.77573 15.3786 0.872853 15.4422 0.97979 15.4841C1.08673 15.526 1.20117 15.5453 1.31594 15.5409C1.4307 15.5365 1.54331 15.5083 1.6467 15.4583C1.75009 15.4083 1.84202 15.3375 1.91673 15.2502L8.00006 9.17522L14.0751 15.2502C14.2345 15.3867 14.4395 15.4581 14.6493 15.45C14.859 15.4419 15.058 15.3549 15.2064 15.2065C15.3548 15.0581 15.4417 14.8592 15.4498 14.6494C15.4579 14.4397 15.3866 14.2346 15.2501 14.0752L9.17506 8.00022Z" fill="#1F1F25"/>
</svg>
