<svg width="20" height="20" viewBox="0 0 20 20" fill="none" xmlns="http://www.w3.org/2000/svg">
<path d="M10.8337 8.33333H2.50033C2.04199 8.33333 1.66699 8.70833 1.66699 9.16667C1.66699 9.625 2.04199 10 2.50033 10H10.8337C11.292 10 11.667 9.625 11.667 9.16667C11.667 8.70833 11.292 8.33333 10.8337 8.33333ZM10.8337 5H2.50033C2.04199 5 1.66699 5.375 1.66699 5.83333C1.66699 6.29167 2.04199 6.66667 2.50033 6.66667H10.8337C11.292 6.66667 11.667 6.29167 11.667 5.83333C11.667 5.375 11.292 5 10.8337 5ZM15.0003 11.6667V9.16667C15.0003 8.70833 14.6253 8.33333 14.167 8.33333C13.7087 8.33333 13.3337 8.70833 13.3337 9.16667V11.6667H10.8337C10.3753 11.6667 10.0003 12.0417 10.0003 12.5C10.0003 12.9583 10.3753 13.3333 10.8337 13.3333H13.3337V15.8333C13.3337 16.2917 13.7087 16.6667 14.167 16.6667C14.6253 16.6667 15.0003 16.2917 15.0003 15.8333V13.3333H17.5003C17.9587 13.3333 18.3337 12.9583 18.3337 12.5C18.3337 12.0417 17.9587 11.6667 17.5003 11.6667H15.0003ZM2.50033 13.3333H7.50033C7.95866 13.3333 8.33366 12.9583 8.33366 12.5C8.33366 12.0417 7.95866 11.6667 7.50033 11.6667H2.50033C2.04199 11.6667 1.66699 12.0417 1.66699 12.5C1.66699 12.9583 2.04199 13.3333 2.50033 13.3333Z" fill="#1F1F25"/>
</svg>
