<svg width="20" height="20" viewBox="0 0 20 20" fill="none" xmlns="http://www.w3.org/2000/svg">
<path d="M10.8332 8.33333H2.49984C2.0415 8.33333 1.6665 8.70833 1.6665 9.16667C1.6665 9.625 2.0415 10 2.49984 10H10.8332C11.2915 10 11.6665 9.625 11.6665 9.16667C11.6665 8.70833 11.2915 8.33333 10.8332 8.33333ZM10.8332 5H2.49984C2.0415 5 1.6665 5.375 1.6665 5.83333C1.6665 6.29167 2.0415 6.66667 2.49984 6.66667H10.8332C11.2915 6.66667 11.6665 6.29167 11.6665 5.83333C11.6665 5.375 11.2915 5 10.8332 5ZM2.49984 13.3333H7.49984C7.95817 13.3333 8.33317 12.9583 8.33317 12.5C8.33317 12.0417 7.95817 11.6667 7.49984 11.6667H2.49984C2.0415 11.6667 1.6665 12.0417 1.6665 12.5C1.6665 12.9583 2.0415 13.3333 2.49984 13.3333ZM18.5082 10.175L18.5832 10.25C18.9082 10.575 18.9082 11.1 18.5832 11.425L13.9332 16.0833C13.8561 16.1606 13.7645 16.2219 13.6637 16.2637C13.5629 16.3055 13.4548 16.327 13.3457 16.327C13.2365 16.327 13.1285 16.3055 13.0277 16.2637C12.9268 16.2219 12.8353 16.1606 12.7582 16.0833L10.1832 13.5083C10.1059 13.4312 10.0446 13.3397 10.0028 13.2389C9.96099 13.138 9.93947 13.03 9.93947 12.9208C9.93947 12.8117 9.96099 12.7036 10.0028 12.6028C10.0446 12.502 10.1059 12.4104 10.1832 12.3333L10.2582 12.2583C10.3353 12.1811 10.4268 12.1198 10.5277 12.078C10.6285 12.0362 10.7365 12.0146 10.8457 12.0146C10.9548 12.0146 11.0629 12.0362 11.1637 12.078C11.2645 12.1198 11.3561 12.1811 11.4332 12.2583L13.3498 14.175L17.3332 10.1833C17.6498 9.85 18.1832 9.85 18.5082 10.175Z" fill="#367EE7"/>
</svg>
