<svg width="16" height="16" viewBox="0 0 16 16" fill="none" xmlns="http://www.w3.org/2000/svg">
<path d="M7.99967 7.66665C7.55765 7.66665 7.13372 7.49105 6.82116 7.17849C6.5086 6.86593 6.33301 6.44201 6.33301 5.99998C6.33301 5.55795 6.5086 5.13403 6.82116 4.82147C7.13372 4.50891 7.55765 4.33331 7.99967 4.33331C8.4417 4.33331 8.86563 4.50891 9.17819 4.82147C9.49075 5.13403 9.66634 5.55795 9.66634 5.99998C9.66634 6.21885 9.62323 6.43558 9.53947 6.63779C9.45572 6.83999 9.33295 7.02373 9.17819 7.17849C9.02342 7.33326 8.83969 7.45602 8.63748 7.53978C8.43527 7.62354 8.21854 7.66665 7.99967 7.66665ZM7.99967 1.33331C6.762 1.33331 5.57501 1.82498 4.69984 2.70015C3.82467 3.57532 3.33301 4.7623 3.33301 5.99998C3.33301 9.49998 7.99967 14.6666 7.99967 14.6666C7.99967 14.6666 12.6663 9.49998 12.6663 5.99998C12.6663 4.7623 12.1747 3.57532 11.2995 2.70015C10.4243 1.82498 9.23735 1.33331 7.99967 1.33331Z" fill="#BFBFBF"/>
</svg>
