<svg width="20" height="20" viewBox="0 0 20 20" fill="none" xmlns="http://www.w3.org/2000/svg">
<path d="M15.4688 11.0934H11.4583C11.2567 11.0934 11.0937 11.2567 11.0937 11.458V15.4684C11.0937 15.6697 11.2567 15.833 11.4583 15.833H15.4688C15.6704 15.833 15.8334 15.6697 15.8334 15.4684V11.458C15.8334 11.2567 15.6704 11.0934 15.4688 11.0934Z" fill="white"/>
<path d="M8.54174 11.0934H4.53126C4.32964 11.0934 4.16669 11.2567 4.16669 11.458V15.4684C4.16669 15.6697 4.32964 15.833 4.53126 15.833H8.54174C8.74336 15.833 8.90631 15.6697 8.90631 15.4684V11.458C8.90631 11.2567 8.74336 11.0934 8.54174 11.0934Z" fill="white"/>
<path d="M8.54174 4.16669H4.53126C4.32964 4.16669 4.16669 4.33002 4.16669 4.53126V8.54174C4.16669 8.74297 4.32964 8.90631 4.53126 8.90631H8.54174C8.74336 8.90631 8.90631 8.74297 8.90631 8.54174V4.53126C8.90631 4.33002 8.74336 4.16669 8.54174 4.16669Z" fill="white"/>
<path d="M15.4688 4.16669H11.4583C11.2567 4.16669 11.0937 4.33002 11.0937 4.53126V8.54174C11.0937 8.74297 11.2567 8.90631 11.4583 8.90631H15.4688C15.6704 8.90631 15.8334 8.74297 15.8334 8.54174V4.53126C15.8334 4.33002 15.6704 4.16669 15.4688 4.16669Z" fill="white"/>
</svg>
