<svg width="20" height="20" viewBox="0 0 20 20" fill="none" xmlns="http://www.w3.org/2000/svg">
<path d="M1.66699 5.00033C1.66699 4.77931 1.75479 4.56735 1.91107 4.41107C2.06735 4.25479 2.27931 4.16699 2.50033 4.16699H17.5003C17.7213 4.16699 17.9333 4.25479 18.0896 4.41107C18.2459 4.56735 18.3337 4.77931 18.3337 5.00033C18.3337 5.22134 18.2459 5.4333 18.0896 5.58958C17.9333 5.74586 17.7213 5.83366 17.5003 5.83366H2.50033C2.27931 5.83366 2.06735 5.74586 1.91107 5.58958C1.75479 5.4333 1.66699 5.22134 1.66699 5.00033Z" fill="#1F1F25"/>
<path d="M1.66699 10.027C1.66699 9.80598 1.75479 9.59402 1.91107 9.43774C2.06735 9.28146 2.27931 9.19366 2.50033 9.19366H17.5003C17.7213 9.19366 17.9333 9.28146 18.0896 9.43774C18.2459 9.59402 18.3337 9.80598 18.3337 10.027C18.3337 10.248 18.2459 10.46 18.0896 10.6162C17.9333 10.7725 17.7213 10.8603 17.5003 10.8603H2.50033C2.27931 10.8603 2.06735 10.7725 1.91107 10.6162C1.75479 10.46 1.66699 10.248 1.66699 10.027Z" fill="#1F1F25"/>
<path d="M2.50033 14.2203C2.27931 14.2203 2.06735 14.3081 1.91107 14.4644C1.75479 14.6207 1.66699 14.8326 1.66699 15.0537C1.66699 15.2747 1.75479 15.4866 1.91107 15.6429C2.06735 15.7992 2.27931 15.887 2.50033 15.887H17.5003C17.7213 15.887 17.9333 15.7992 18.0896 15.6429C18.2459 15.4866 18.3337 15.2747 18.3337 15.0537C18.3337 14.8326 18.2459 14.6207 18.0896 14.4644C17.9333 14.3081 17.7213 14.2203 17.5003 14.2203H2.50033Z" fill="#1F1F25"/>
</svg>
