<svg width="20" height="20" viewBox="0 0 20 20" fill="none" xmlns="http://www.w3.org/2000/svg">
<path d="M16.7853 13.9099V16.0605C16.7861 16.2601 16.7452 16.4577 16.665 16.6407C16.5849 16.8236 16.4674 16.9878 16.3199 17.1228C16.1725 17.2577 15.9985 17.3605 15.809 17.4244C15.6195 17.4884 15.4187 17.5122 15.2195 17.4942C13.0092 17.2545 10.8861 16.5007 9.02068 15.2934C7.28518 14.1928 5.81377 12.7243 4.71097 10.9923C3.49705 9.12211 2.7416 6.99288 2.50583 4.77706C2.48788 4.57883 2.51149 4.37903 2.57514 4.1904C2.6388 4.00177 2.74112 3.82843 2.87558 3.68143C3.01004 3.53442 3.1737 3.41697 3.35613 3.33654C3.53856 3.25612 3.73578 3.21449 3.93522 3.2143H6.09007C6.43866 3.21088 6.7766 3.33408 7.04091 3.56093C7.30522 3.78778 7.47785 4.10282 7.52664 4.44731C7.61759 5.13554 7.78627 5.8113 8.02944 6.46169C8.12608 6.71827 8.147 6.99712 8.08971 7.2652C8.03242 7.53329 7.89933 7.77936 7.70621 7.97427L6.79399 8.88468C7.81651 10.6794 9.30544 12.1654 11.1037 13.1859L12.0159 12.2754C12.2112 12.0827 12.4578 11.9499 12.7264 11.8927C12.995 11.8355 13.2744 11.8564 13.5315 11.9529C14.1832 12.1955 14.8603 12.3639 15.5499 12.4547C15.8988 12.5038 16.2175 12.6792 16.4453 12.9475C16.673 13.2158 16.7941 13.5583 16.7853 13.9099Z" stroke="#5E5F62" stroke-width="1.5" stroke-linecap="round" stroke-linejoin="round"/>
<path d="M11.8213 5.35716C12.519 5.49327 13.1601 5.83448 13.6628 6.33711C14.1654 6.83974 14.5066 7.48093 14.6427 8.1786M11.8213 2.5C13.2708 2.66103 14.6224 3.31013 15.6543 4.34073C16.6862 5.37133 17.337 6.72217 17.4999 8.17145" stroke="#5E5F62" stroke-width="1.5" stroke-linecap="round" stroke-linejoin="round"/>
</svg>
