<svg width="16" height="16" viewBox="0 0 16 16" fill="none" xmlns="http://www.w3.org/2000/svg">
<path d="M13.848 6.77002L12.936 4.03402C12.8037 3.63568 12.5492 3.28915 12.2088 3.04369C11.8683 2.79823 11.4591 2.66631 11.0393 2.66669H4.96068C4.54094 2.66631 4.13175 2.79823 3.79127 3.04369C3.45078 3.28915 3.19631 3.63568 3.06401 4.03402L2.15201 6.77002C1.90949 6.8715 1.70238 7.0424 1.55672 7.26125C1.41106 7.4801 1.33334 7.73713 1.33334 8.00002V11.3334C1.33334 11.8254 1.60268 12.2507 2.00001 12.482V14C2.00001 14.1768 2.07025 14.3464 2.19527 14.4714C2.3203 14.5964 2.48987 14.6667 2.66668 14.6667H3.33334C3.51015 14.6667 3.67972 14.5964 3.80475 14.4714C3.92977 14.3464 4.00001 14.1768 4.00001 14V12.6667H12V14C12 14.1768 12.0702 14.3464 12.1953 14.4714C12.3203 14.5964 12.4899 14.6667 12.6667 14.6667H13.3333C13.5102 14.6667 13.6797 14.5964 13.8047 14.4714C13.9298 14.3464 14 14.1768 14 14V12.482C14.2023 12.366 14.3704 12.1988 14.4874 11.9971C14.6045 11.7955 14.6663 11.5665 14.6667 11.3334V8.00002C14.6667 7.73713 14.589 7.4801 14.4433 7.26125C14.2976 7.0424 14.0905 6.8715 13.848 6.77002ZM4.96068 4.00002H11.0387C11.326 4.00002 11.5807 4.18269 11.6713 4.45602L12.4087 6.66669H3.59134L4.32801 4.45602C4.37224 4.32322 4.45715 4.2077 4.57071 4.12586C4.68426 4.04401 4.8207 3.99999 4.96068 4.00002ZM3.66668 10.6667C3.53531 10.6666 3.40524 10.6407 3.28389 10.5904C3.16254 10.5401 3.05229 10.4664 2.95943 10.3735C2.86657 10.2805 2.79293 10.1702 2.7427 10.0489C2.69246 9.92747 2.66663 9.79739 2.66668 9.66602C2.66672 9.53465 2.69264 9.40458 2.74295 9.28323C2.79326 9.16189 2.86698 9.05163 2.9599 8.95878C3.05282 8.86592 3.16312 8.79227 3.28451 8.74204C3.40589 8.69181 3.53598 8.66598 3.66734 8.66602C3.93265 8.66611 4.18705 8.77159 4.37459 8.95925C4.56212 9.14691 4.66743 9.40138 4.66734 9.66669C4.66726 9.93199 4.56178 10.1864 4.37412 10.3739C4.18646 10.5615 3.93198 10.6668 3.66668 10.6667ZM12.3333 10.6667C12.202 10.6666 12.0719 10.6407 11.9506 10.5904C11.8292 10.5401 11.719 10.4664 11.6261 10.3735C11.5332 10.2805 11.4596 10.1702 11.4094 10.0489C11.3591 9.92747 11.3333 9.79739 11.3333 9.66602C11.3334 9.53465 11.3593 9.40458 11.4096 9.28323C11.4599 9.16189 11.5337 9.05163 11.6266 8.95878C11.7195 8.86592 11.8298 8.79227 11.9512 8.74204C12.0726 8.69181 12.2026 8.66598 12.334 8.66602C12.5993 8.66611 12.8537 8.77159 13.0413 8.95925C13.2288 9.14691 13.3341 9.40138 13.334 9.66669C13.3339 9.93199 13.2284 10.1864 13.0408 10.3739C12.8531 10.5615 12.5986 10.6668 12.3333 10.6667Z" fill="#79818C"/>
</svg>
