<svg width="14" height="14" viewBox="0 0 14 14" fill="none" xmlns="http://www.w3.org/2000/svg">
<path d="M1.74967 8.16667L2.04134 8.2075L4.70717 5.54167C4.60217 5.1625 4.70134 4.73083 5.01051 4.4275C5.46551 3.96667 6.20051 3.96667 6.65551 4.4275C6.96467 4.73083 7.06384 5.1625 6.95884 5.54167L8.45801 7.04083L8.74967 7C8.85468 7 8.95384 7 9.04134 7.04083L11.1238 4.95833C11.083 4.87083 11.083 4.77167 11.083 4.66667C11.083 4.35725 11.2059 4.0605 11.4247 3.84171C11.6435 3.62292 11.9403 3.5 12.2497 3.5C12.5591 3.5 12.8558 3.62292 13.0746 3.84171C13.2934 4.0605 13.4163 4.35725 13.4163 4.66667C13.4163 4.97609 13.2934 5.27283 13.0746 5.49162C12.8558 5.71042 12.5591 5.83333 12.2497 5.83333C12.1447 5.83333 12.0455 5.83333 11.958 5.7925L9.87551 7.875C9.91634 7.9625 9.91634 8.06167 9.91634 8.16667C9.91634 8.47609 9.79343 8.77283 9.57463 8.99162C9.35584 9.21042 9.05909 9.33333 8.74967 9.33333C8.44026 9.33333 8.14351 9.21042 7.92472 8.99162C7.70592 8.77283 7.58301 8.47609 7.58301 8.16667L7.62384 7.875L6.12467 6.37583C5.93801 6.41667 5.72801 6.41667 5.54134 6.37583L2.87551 9.04167L2.91634 9.33333C2.91634 9.64275 2.79343 9.9395 2.57463 10.1583C2.35584 10.3771 2.05909 10.5 1.74967 10.5C1.44026 10.5 1.14351 10.3771 0.924717 10.1583C0.705924 9.9395 0.583008 9.64275 0.583008 9.33333C0.583008 9.02391 0.705924 8.72717 0.924717 8.50838C1.14351 8.28958 1.44026 8.16667 1.74967 8.16667Z" fill="white"/>
</svg>
