<svg width="20" height="20" viewBox="0 0 20 20" fill="none" xmlns="http://www.w3.org/2000/svg">
<path d="M10.3548 16.7566C6.67982 16.7566 3.68815 13.7649 3.68815 10.0899C3.68815 6.41493 6.67982 3.42326 10.3548 3.42326C14.0298 3.42326 17.0215 6.41493 17.0215 10.0899C17.0215 13.7649 14.0298 16.7566 10.3548 16.7566ZM10.3548 1.75659C5.74648 1.75659 2.02148 5.48159 2.02148 10.0899C2.02148 14.6983 5.74648 18.4233 10.3548 18.4233C14.9632 18.4233 18.6882 14.6983 18.6882 10.0899C18.6882 5.48159 14.9632 1.75659 10.3548 1.75659ZM12.5132 6.75659L10.3548 8.91493L8.19648 6.75659L7.02148 7.93159L9.17982 10.0899L7.02148 12.2483L8.19648 13.4233L10.3548 11.2649L12.5132 13.4233L13.6882 12.2483L11.5298 10.0899L13.6882 7.93159L12.5132 6.75659Z" fill="#1F1F25"/>
</svg>
