<svg width="20" height="20" viewBox="0 0 20 20" fill="none" xmlns="http://www.w3.org/2000/svg">
<g opacity="0.8">
<path d="M10.7832 10.0001L14.8332 5.95006C14.9242 5.84379 14.9718 5.70708 14.9664 5.56726C14.961 5.42744 14.903 5.2948 14.8041 5.19586C14.7051 5.09692 14.5725 5.03896 14.4327 5.03356C14.2929 5.02816 14.1562 5.07572 14.0499 5.16673L9.99988 9.21673L5.94988 5.16117C5.8436 5.07016 5.70689 5.0226 5.56707 5.028C5.42725 5.0334 5.29462 5.09137 5.19568 5.19031C5.09673 5.28925 5.03877 5.42188 5.03337 5.5617C5.02797 5.70152 5.07553 5.83823 5.16654 5.94451L9.21654 10.0001L5.16099 14.0501C5.10283 14.0999 5.0556 14.1612 5.02225 14.2301C4.98891 14.299 4.97017 14.3741 4.96721 14.4506C4.96426 14.5271 4.97715 14.6034 5.00508 14.6747C5.03301 14.746 5.07537 14.8107 5.12952 14.8649C5.18366 14.919 5.24841 14.9614 5.3197 14.9893C5.39099 15.0172 5.46728 15.0301 5.5438 15.0272C5.62031 15.0242 5.69538 15.0055 5.7643 14.9721C5.83323 14.9388 5.89452 14.8916 5.94432 14.8334L9.99988 10.7834L14.0499 14.8334C14.1562 14.9244 14.2929 14.972 14.4327 14.9666C14.5725 14.9612 14.7051 14.9032 14.8041 14.8043C14.903 14.7053 14.961 14.5727 14.9664 14.4329C14.9718 14.2931 14.9242 14.1563 14.8332 14.0501L10.7832 10.0001Z" fill="white"/>
</g>
</svg>
