<svg width="16" height="16" viewBox="0 0 16 16" fill="none" xmlns="http://www.w3.org/2000/svg">
<path d="M13.9996 2.49957V11.4996C13.9996 11.6322 13.9469 11.7594 13.8531 11.8532C13.7594 11.947 13.6322 11.9996 13.4996 11.9996C13.367 11.9996 13.2398 11.947 13.146 11.8532C13.0523 11.7594 12.9996 11.6322 12.9996 11.4996V2.99963H4.49915C4.36654 2.99963 4.23936 2.94696 4.14559 2.85319C4.05182 2.75942 3.99915 2.63224 3.99915 2.49963C3.99915 2.36703 4.05182 2.23985 4.14559 2.14608C4.23936 2.05231 4.36654 1.99963 4.49915 1.99963H13.4996C13.6322 1.99963 13.7594 2.05231 13.8531 2.14608C13.9469 2.23985 13.9996 2.36703 13.9996 2.49963V2.49957ZM11.4995 3.99963H2.49915C2.36654 3.99963 2.23936 4.05231 2.14559 4.14608C2.05182 4.23985 1.99915 4.36703 1.99915 4.49963V13.4996C1.99915 13.6322 2.05182 13.7594 2.14559 13.8532C2.23936 13.947 2.36654 13.9996 2.49915 13.9996H11.4995C11.6321 13.9996 11.7593 13.947 11.8531 13.8532C11.9468 13.7594 11.9995 13.6322 11.9995 13.4996V4.49963C11.9995 4.36703 11.9468 4.23985 11.8531 4.14608C11.7593 4.05231 11.6321 3.99963 11.4995 3.99963Z" fill="#79818C"/>
</svg>
