<svg width="12" height="13" viewBox="0 0 12 13" fill="none" xmlns="http://www.w3.org/2000/svg">
<path d="M11.3392 7.20661C11.297 7.10536 11.1985 7.03929 11.0891 7.03929H8.1223V0.270751C8.1223 0.121301 8.00099 0 7.85154 0H3.51966C3.37021 0 3.24891 0.121301 3.24891 0.270751V7.03932H0.270748C0.161377 7.03932 0.0628183 7.10539 0.0205825 7.2061C-0.0211203 7.30735 0.00162196 7.42378 0.0790628 7.50122L5.48037 12.9204C5.53127 12.9713 5.60005 13 5.67206 13C5.74407 13 5.81285 12.9713 5.86375 12.9209L11.2808 7.50176C11.3582 7.42429 11.3815 7.30789 11.3392 7.20661Z" fill="#79818C"/>
</svg>
