<svg width="20" height="20" viewBox="0 0 20 20" fill="none" xmlns="http://www.w3.org/2000/svg">
<path fill-rule="evenodd" clip-rule="evenodd" d="M3 17.5C3 16.9477 3.44772 16.5 4 16.5H16.3337C16.8859 16.5 17.3337 16.9477 17.3337 17.5C17.3337 18.0523 16.8859 18.5 16.3337 18.5H4C3.44772 18.5 3 18.0523 3 17.5Z" fill="#367EE7"/>
<path fill-rule="evenodd" clip-rule="evenodd" d="M9.99967 1.5C10.552 1.5 10.9997 1.94772 10.9997 2.5L10.9997 10.0858L13.4592 7.62623C13.8498 7.2357 14.4829 7.2357 14.8734 7.62623C15.264 8.01675 15.264 8.64992 14.8734 9.04044L10.7068 13.2071C10.5192 13.3946 10.2649 13.5 9.99967 13.5C9.73446 13.5 9.4801 13.3946 9.29257 13.2071L5.1259 9.04044C4.73538 8.64992 4.73538 8.01675 5.1259 7.62623C5.51643 7.2357 6.14959 7.2357 6.54011 7.62623L8.99967 10.0858L8.99967 2.5C8.99967 1.94772 9.44739 1.5 9.99967 1.5Z" fill="#367EE7"/>
</svg>
