<svg width="20" height="20" viewBox="0 0 20 20" fill="none" xmlns="http://www.w3.org/2000/svg">
<path d="M13.593 17.4096V13.2926C16.1529 12.3931 17.599 8.96778 17.599 6.63749C17.599 5.98915 17.4713 5.34715 17.2231 4.74816C16.975 4.14917 16.6114 3.60492 16.1529 3.14647C15.6945 2.68802 15.1502 2.32436 14.5512 2.07625C13.9522 1.82814 13.3102 1.70044 12.6619 1.70044C11.3525 1.70044 10.0968 2.22059 9.17088 3.14647C8.24501 4.07235 7.72485 5.3281 7.72485 6.63749C7.72485 8.96778 9.46189 12.4939 11.8549 13.2926V17.4096H13.593Z" fill="white"/>
<path fill-rule="evenodd" clip-rule="evenodd" d="M9.10991 13.6919C8.71028 14.0387 8.26273 14.314 7.7701 14.4871V18.2539H6.17984V14.4871C3.99035 13.7563 2.40106 10.5301 2.40106 8.39802C2.40106 7.2 2.87697 6.05105 3.7241 5.20393C4.51475 4.41328 5.56832 3.946 6.67931 3.88721C6.31052 4.7167 6.11464 5.62182 6.11464 6.54714C6.11464 8.75123 7.28644 11.762 9.10991 13.6919Z" fill="white"/>
</svg>
