<svg width="92" height="92" viewBox="0 0 92 92" fill="none" xmlns="http://www.w3.org/2000/svg">
<path fill-rule="evenodd" clip-rule="evenodd" d="M92 46C92 71.4051 71.4051 92 46 92C20.5949 92 0 71.4051 0 46C0 20.5949 20.5949 0 46 0C71.4051 0 92 20.5949 92 46ZM65.8376 73.616C60.2545 77.6336 53.4036 80 46 80C27.2223 80 12 64.7777 12 46C12 38.5964 14.3664 31.7455 18.384 26.1624L65.8376 73.616ZM73.6158 65.8378L26.1622 18.3842C31.7453 14.3664 38.5963 12 46 12C64.7777 12 80 27.2223 80 46C80 53.4037 77.6336 60.2547 73.6158 65.8378Z" fill="#D1D1D1"/>
</svg>
