<svg width="23" height="19" viewBox="0 0 23 19" fill="none" xmlns="http://www.w3.org/2000/svg">
<path d="M21.5342 3.92385C21.2069 3.16612 20.7351 2.47948 20.145 1.90236C19.5545 1.32352 18.8583 0.86352 18.0942 0.547381C17.3019 0.218262 16.4522 0.0498003 15.5942 0.051775C14.3906 0.051775 13.2163 0.381365 12.1958 1.00392C11.9517 1.15285 11.7197 1.31642 11.5 1.49465C11.2803 1.31642 11.0483 1.15285 10.8042 1.00392C9.78369 0.381365 8.60937 0.051775 7.40576 0.051775C6.53906 0.051775 5.69922 0.217791 4.90576 0.547381C4.13916 0.864763 3.44824 1.32131 2.85498 1.90236C2.26415 2.47883 1.79218 3.16563 1.46582 3.92385C1.12646 4.71242 0.953125 5.54982 0.953125 6.41164C0.953125 7.22463 1.11914 8.07179 1.44873 8.93361C1.72461 9.65383 2.12012 10.4009 2.62549 11.1553C3.42627 12.3491 4.52734 13.5943 5.89453 14.8565C8.16016 16.9487 10.4038 18.3941 10.499 18.4527L11.0776 18.8237C11.334 18.9873 11.6636 18.9873 11.9199 18.8237L12.4985 18.4527C12.5938 18.3916 14.835 16.9487 17.103 14.8565C18.4702 13.5943 19.5713 12.3491 20.3721 11.1553C20.8774 10.4009 21.2754 9.65383 21.5488 8.93361C21.8784 8.07179 22.0444 7.22463 22.0444 6.41164C22.0469 5.54982 21.8735 4.71242 21.5342 3.92385Z" fill="#79818C"/>
</svg>
