<svg width="30" height="30" viewBox="0 0 30 30" fill="none" xmlns="http://www.w3.org/2000/svg">
<path d="M19.5696 5H17.0382C13.9637 5 11.9782 6.98843 11.9782 10.0668V12.0352H9.43038C9.1925 12.0352 9 12.2238 9 12.4566V15.8421C9 16.0749 9.1925 16.2621 9.43038 16.2621H11.9782V24.58C11.9782 24.8114 12.1708 25 12.4073 25H15.996C16.2353 25 16.4278 24.8114 16.4278 24.58V16.2606H19.5682C19.8061 16.2606 19.9986 16.0735 19.9986 15.8407L20 12.4566C19.9994 12.401 19.9879 12.346 19.9661 12.2952C19.9444 12.2444 19.9129 12.1987 19.8735 12.1609C19.7911 12.0809 19.6824 12.0365 19.5696 12.0366H16.4278V10.4225C16.4278 9.47111 16.6601 8.98829 17.9306 8.98829L19.5696 8.98257C19.8061 8.98257 19.9986 8.79544 19.9986 8.5626V5.41997C20 5.18856 19.8075 5 19.5696 5Z" fill="#D1D1D1"/>
</svg>
