<svg width="24" height="24" viewBox="0 0 24 24" fill="none" xmlns="http://www.w3.org/2000/svg">
<path fill-rule="evenodd" clip-rule="evenodd" d="M9 12C10.3764 12 11.5363 11.0731 11.8895 9.80945H19.2381C19.6589 9.80945 20 9.46834 20 9.04755C20 8.62676 19.6589 8.28564 19.2381 8.28564H11.9144C11.594 6.97368 10.4107 6 9 6C7.58931 6 6.40604 6.97368 6.08557 8.28564H4.7619C4.34112 8.28564 4 8.62676 4 9.04755C4 9.46834 4.34112 9.80945 4.7619 9.80945H6.11047C6.46372 11.0731 7.62362 12 9 12ZM9 10.7253C9.95284 10.7253 10.7253 9.95284 10.7253 9C10.7253 8.04716 9.95284 7.27473 9 7.27473C8.04716 7.27473 7.27473 8.04716 7.27473 9C7.27473 9.95284 8.04716 10.7253 9 10.7253ZM15 18C16.3416 18 17.4775 17.1194 17.8612 15.9047H19.2381C19.6589 15.9047 20 15.5636 20 15.1428C20 14.722 19.6589 14.3809 19.2381 14.3809H17.936L17.9361 14.381C17.6508 13.0212 16.4447 12 15 12C13.5554 12 12.3493 13.0211 12.064 14.3809H4.7619C4.34112 14.3809 4 14.722 4 15.1428C4 15.5636 4.34112 15.9047 4.7619 15.9047H12.1388C12.5225 17.1194 13.6584 18 15 18ZM15 16.7253C15.9528 16.7253 16.7253 15.9528 16.7253 15C16.7253 14.0472 15.9528 13.2747 15 13.2747C14.0472 13.2747 13.2747 14.0472 13.2747 15C13.2747 15.9528 14.0472 16.7253 15 16.7253Z" fill="#367EE7"/>
</svg>
