<svg width="14" height="19" viewBox="0 0 14 19" fill="none" xmlns="http://www.w3.org/2000/svg">
<path d="M6.99967 0.666748C9.75801 0.666748 11.9997 2.88341 11.9997 5.62508C11.9997 9.34175 6.99967 14.8334 6.99967 14.8334C6.99967 14.8334 1.99967 9.34175 1.99967 5.62508C1.99967 2.88341 4.24134 0.666748 6.99967 0.666748ZM6.99967 4.00008C6.55765 4.00008 6.13372 4.17568 5.82116 4.48824C5.5086 4.8008 5.33301 5.22472 5.33301 5.66675C5.33301 6.10878 5.5086 6.5327 5.82116 6.84526C6.13372 7.15782 6.55765 7.33341 6.99967 7.33341C7.4417 7.33341 7.86562 7.15782 8.17818 6.84526C8.49074 6.5327 8.66634 6.10878 8.66634 5.66675C8.66634 5.22472 8.49074 4.8008 8.17818 4.48824C7.86562 4.17568 7.4417 4.00008 6.99967 4.00008ZM13.6663 14.8334C13.6663 16.6751 10.683 18.1667 6.99967 18.1667C3.31634 18.1667 0.333008 16.6751 0.333008 14.8334C0.333008 13.7584 1.34967 12.8001 2.92467 12.1917L3.45801 12.9501C2.55801 13.3251 1.99967 13.8417 1.99967 14.4167C1.99967 15.5667 4.24134 16.5001 6.99967 16.5001C9.75801 16.5001 11.9997 15.5667 11.9997 14.4167C11.9997 13.8417 11.4413 13.3251 10.5413 12.9501L11.0747 12.1917C12.6497 12.8001 13.6663 13.7584 13.6663 14.8334Z" fill="white"/>
</svg>
