<svg width="20" height="20" viewBox="0 0 20 20" fill="none" xmlns="http://www.w3.org/2000/svg">
<path d="M2 4.5C2 4.30109 2.08429 4.11032 2.23431 3.96967C2.38434 3.82902 2.58783 3.75 2.8 3.75H17.2C17.4122 3.75 17.6157 3.82902 17.7657 3.96967C17.9157 4.11032 18 4.30109 18 4.5C18 4.69891 17.9157 4.88968 17.7657 5.03033C17.6157 5.17098 17.4122 5.25 17.2 5.25H2.8C2.58783 5.25 2.38434 5.17098 2.23431 5.03033C2.08429 4.88968 2 4.69891 2 4.5Z" fill="#5E5F62"/>
<path d="M2.8 14.75C2.58783 14.75 2.38434 14.829 2.23431 14.9697C2.08429 15.1103 2 15.3011 2 15.5C2 15.6989 2.08429 15.8897 2.23431 16.0303C2.38434 16.171 2.58783 16.25 2.8 16.25H17.2C17.4122 16.25 17.6157 16.171 17.7657 16.0303C17.9157 15.8897 18 15.6989 18 15.5C18 15.3011 17.9157 15.1103 17.7657 14.9697C17.6157 14.829 17.4122 14.75 17.2 14.75H2.8Z" fill="#5E5F62"/>
<path d="M2 10C2 9.80109 2.08429 9.61032 2.23431 9.46967C2.38434 9.32902 2.58783 9.25 2.8 9.25H17.2C17.4122 9.25 17.6157 9.32902 17.7657 9.46967C17.9157 9.61032 18 9.80109 18 10C18 10.1989 17.9157 10.3897 17.7657 10.5303C17.6157 10.671 17.4122 10.75 17.2 10.75H2.8C2.58783 10.75 2.38434 10.671 2.23431 10.5303C2.08429 10.3897 2 10.1989 2 10Z" fill="#5E5F62"/>
</svg>
