<svg width="14" height="13" viewBox="0 0 14 13" fill="none" xmlns="http://www.w3.org/2000/svg">
<path d="M6.56531 1.01764C6.71706 1.11021 6.86123 1.21189 6.99781 1.32267C7.13439 1.21189 7.27856 1.11021 7.43032 1.01764C8.06466 0.630663 8.79461 0.425792 9.54277 0.425792C10.0761 0.424564 10.6043 0.52928 11.0968 0.733858C11.5717 0.930369 12.0045 1.2163 12.3715 1.57611C12.7383 1.93484 13.0316 2.36166 13.235 2.83265C13.446 3.32283 13.5537 3.84335 13.5522 4.37905C13.5522 4.8844 13.449 5.411 13.2441 5.9467C13.0742 6.39438 12.8268 6.85876 12.5127 7.32769C12.0149 8.06978 11.3305 8.84374 10.4806 9.62832C9.07081 10.9289 7.67768 11.8258 7.6185 11.8637L7.25883 12.0944C7.09949 12.196 6.89462 12.196 6.73527 12.0944L6.37561 11.8637C6.31642 11.8273 4.92178 10.9289 3.51348 9.62832C2.66364 8.84374 1.97922 8.06978 1.48146 7.32769C1.16732 6.85876 0.921474 6.39438 0.749989 5.9467C0.545118 5.411 0.441923 4.8844 0.441923 4.37905C0.441923 3.84335 0.54967 3.32283 0.760612 2.83265C0.963477 2.36135 1.25685 1.93444 1.62411 1.57611C1.99288 1.21493 2.42235 0.931142 2.89886 0.733858C3.39207 0.528987 3.91412 0.425792 4.45285 0.425792C5.20101 0.425792 5.93096 0.630663 6.56531 1.01764Z" fill="#ACAEB3"/>
</svg>
