<svg width="24" height="24" viewBox="0 0 24 24" fill="none" xmlns="http://www.w3.org/2000/svg">
<path d="M21.3525 7.24898C21.0474 6.54248 20.6075 5.90227 20.0573 5.36416C19.5067 4.82445 18.8576 4.39555 18.1452 4.10079C17.4064 3.79392 16.6141 3.63685 15.8142 3.63869C14.6919 3.63869 13.597 3.946 12.6455 4.52646C12.4179 4.66532 12.2016 4.81784 11.9967 4.98401C11.7919 4.81784 11.5756 4.66532 11.348 4.52646C10.3965 3.946 9.30154 3.63869 8.1793 3.63869C7.37119 3.63869 6.58813 3.79348 5.84831 4.10079C5.13354 4.39671 4.48933 4.82239 3.93618 5.36416C3.3853 5.90166 2.94523 6.54203 2.64094 7.24898C2.32452 7.98424 2.1629 8.76503 2.1629 9.56858C2.1629 10.3266 2.31769 11.1165 2.625 11.9201C2.88223 12.5916 3.251 13.2881 3.7222 13.9915C4.46885 15.1047 5.49548 16.2656 6.77024 17.4425C8.88269 19.3933 10.9747 20.7409 11.0634 20.7955L11.6029 21.1415C11.8419 21.2941 12.1493 21.2941 12.3883 21.1415L12.9278 20.7955C13.0165 20.7386 15.1062 19.3933 17.221 17.4425C18.4957 16.2656 19.5224 15.1047 20.269 13.9915C20.7402 13.2881 21.1112 12.5916 21.3662 11.9201C21.6735 11.1165 21.8283 10.3266 21.8283 9.56858C21.8306 8.76503 21.6689 7.98424 21.3525 7.24898Z" fill="#79818C"/>
<path fill-rule="evenodd" clip-rule="evenodd" d="M11.9967 4.98401C11.7919 4.81784 11.5756 4.66532 11.348 4.52646C10.3965 3.946 9.30154 3.63869 8.1793 3.63869C7.37119 3.63869 6.58813 3.79348 5.84831 4.10079C5.13354 4.39671 4.48933 4.82239 3.93618 5.36416C3.3853 5.90166 2.94523 6.54203 2.64094 7.24898C2.32452 7.98424 2.1629 8.76503 2.1629 9.56858C2.1629 10.3266 2.31769 11.1165 2.625 11.9201C2.88223 12.5916 3.251 13.2881 3.7222 13.9915C4.46885 15.1047 5.49548 16.2656 6.77024 17.4425C8.88269 19.3933 10.9747 20.7409 11.0634 20.7955L11.6029 21.1415C11.8419 21.2941 12.1493 21.2941 12.3883 21.1415L12.9278 20.7955C13.0165 20.7386 15.1062 19.3933 17.221 17.4425C18.4957 16.2656 19.5224 15.1047 20.269 13.9915C20.7402 13.2881 21.1112 12.5916 21.3662 11.9201C21.6735 11.1165 21.8283 10.3266 21.8283 9.56858C21.8306 8.76503 21.6689 7.98424 21.3525 7.24898C21.0474 6.54248 20.6075 5.90227 20.0573 5.36416C19.5067 4.82445 18.8576 4.39555 18.1452 4.10079C17.4064 3.79392 16.6141 3.63685 15.8142 3.63869C14.6919 3.63869 13.597 3.946 12.6455 4.52646C12.4179 4.66532 12.2016 4.81784 11.9967 4.98401ZM18.7519 6.69584C18.3719 6.32335 17.9239 6.02734 17.4322 5.8239C16.9215 5.61177 16.3714 5.5022 15.8185 5.50347C15.0373 5.50346 14.2743 5.71719 13.6167 6.11841C13.4593 6.21442 13.311 6.31906 13.1714 6.43228L11.9967 7.3851L10.822 6.43228C10.6824 6.31906 10.5343 6.21446 10.3769 6.11844C9.71919 5.71722 8.96045 5.50347 8.1793 5.50347C7.61345 5.50347 7.07375 5.61103 6.56366 5.82291C6.06949 6.0275 5.624 6.32129 5.241 6.6964C4.86478 7.06349 4.56169 7.50331 4.35385 7.98611C4.1374 8.48912 4.02769 9.01924 4.02769 9.56858C4.02769 10.071 4.13019 10.6351 4.3664 11.253C4.56582 11.7735 4.86471 12.3463 5.27087 12.9528C5.91593 13.9142 6.8377 14.9668 8.03539 16.0725C9.02702 16.9883 10.0211 17.7687 10.7813 18.3284C11.4063 18.7885 11.8555 19.0864 11.9951 19.1777C12.3768 18.927 14.1612 17.7279 15.956 16.0723C17.1537 14.9666 18.0748 13.9149 18.7199 12.9534C19.1285 12.3434 19.4275 11.7725 19.6228 11.2582C19.8593 10.6398 19.9635 10.066 19.9635 9.5633C19.9651 9.0181 19.8564 8.49039 19.6404 7.98782C19.4314 7.5041 19.1286 7.0643 18.7519 6.69584Z" fill="#79818C"/>
</svg>
