<svg width="14" height="13" viewBox="0 0 14 13" fill="none" xmlns="http://www.w3.org/2000/svg">
<path d="M6.56531 1.01766C6.71706 1.11024 6.86123 1.21191 6.99781 1.3227C7.13439 1.21191 7.27856 1.11024 7.43032 1.01766C8.06466 0.630685 8.79461 0.425814 9.54277 0.425814C10.0761 0.424586 10.6043 0.529301 11.0968 0.73388C11.5717 0.930391 12.0045 1.21632 12.3715 1.57613C12.7383 1.93487 13.0316 2.36168 13.235 2.83268C13.446 3.32285 13.5537 3.84337 13.5522 4.37908C13.5522 4.88443 13.449 5.41102 13.2441 5.94672C13.0742 6.39441 12.8268 6.85878 12.5127 7.32771C12.0149 8.0698 11.3305 8.84376 10.4806 9.62834C9.07081 10.9289 7.67768 11.8258 7.6185 11.8637L7.25883 12.0944C7.09949 12.1961 6.89462 12.1961 6.73527 12.0944L6.37561 11.8637C6.31642 11.8273 4.92178 10.9289 3.51348 9.62834C2.66364 8.84376 1.97922 8.0698 1.48146 7.32771C1.16732 6.85878 0.921474 6.39441 0.749989 5.94672C0.545118 5.41102 0.441923 4.88443 0.441923 4.37908C0.441923 3.84337 0.54967 3.32285 0.760612 2.83268C0.963477 2.36137 1.25685 1.93446 1.62411 1.57613C1.99288 1.21495 2.42235 0.931164 2.89886 0.73388C3.39207 0.529008 3.91412 0.425814 4.45285 0.425814C5.20101 0.425814 5.93096 0.630685 6.56531 1.01766Z" fill="#367EE7"/>
</svg>
