<svg width="14" height="21" viewBox="0 0 14 21" fill="none" xmlns="http://www.w3.org/2000/svg">
<path d="M4.91911 17V21H8.96277V17H4.91911ZM8.96277 13.71C10.5877 13.2256 11.9826 12.1799 12.8935 10.7635C13.8045 9.34707 14.1708 7.65411 13.9258 5.99293C13.6809 4.33176 12.8409 2.81288 11.5588 1.71291C10.2768 0.612949 8.63802 0.0050755 6.94094 2.03539e-08C5.30498 -0.000123319 3.71949 0.560308 2.45408 1.58599C1.18867 2.61167 0.321491 4.03926 0 5.626L3.96683 6.412C4.0794 5.85487 4.3496 5.3408 4.74598 4.92963C5.14235 4.51846 5.64862 4.22709 6.20585 4.08941C6.76309 3.95174 7.3484 3.97342 7.89367 4.15194C8.43894 4.33046 8.92175 4.65848 9.28593 5.09782C9.6501 5.53717 9.88067 6.06978 9.9508 6.63369C10.0209 7.19759 9.92775 7.76961 9.68208 8.28317C9.43641 8.79673 9.04837 9.23073 8.56311 9.53466C8.07784 9.83859 7.5153 9.99996 6.94094 10C6.40472 10 5.89046 10.2107 5.51129 10.5858C5.13213 10.9609 4.91911 11.4696 4.91911 12V15H8.96277V13.71Z" fill="white"/>
</svg>
