<svg width="20" height="20" viewBox="0 0 20 20" fill="none" xmlns="http://www.w3.org/2000/svg">
<path d="M7.91669 3C7.91669 2.72386 8.14054 2.5 8.41669 2.5H11.5834C11.8595 2.5 12.0834 2.72386 12.0834 3V17C12.0834 17.2761 11.8595 17.5 11.5834 17.5H8.41669C8.14054 17.5 7.91669 17.2761 7.91669 17V3Z" fill="white"/>
<path d="M3 12.0833C2.72386 12.0833 2.5 11.8595 2.5 11.5833L2.5 8.41664C2.5 8.1405 2.72386 7.91664 3 7.91664L17 7.91664C17.2761 7.91664 17.5 8.1405 17.5 8.41664L17.5 11.5833C17.5 11.8595 17.2761 12.0833 17 12.0833L3 12.0833Z" fill="white"/>
</svg>
