<svg width="24" height="24" viewBox="0 0 24 24" fill="none" xmlns="http://www.w3.org/2000/svg">
<path d="M22.0303 6.37209C21.703 5.61437 21.2312 4.92772 20.6411 4.3506C20.0506 3.77176 19.3544 3.31176 18.5903 2.99562C17.798 2.6665 16.9483 2.49804 16.0903 2.50002C14.8867 2.50002 13.7124 2.82961 12.6919 3.45217C12.4478 3.60109 12.2158 3.76467 11.9961 3.94289C11.7764 3.76467 11.5444 3.60109 11.3003 3.45217C10.2798 2.82961 9.10547 2.50002 7.90185 2.50002C7.03516 2.50002 6.19531 2.66603 5.40186 2.99562C4.63525 3.31301 3.94434 3.76955 3.35107 4.3506C2.76025 4.92707 2.28828 5.61388 1.96191 6.37209C1.62256 7.16066 1.44922 7.99806 1.44922 8.85988C1.44922 9.67287 1.61523 10.52 1.94482 11.3819C2.2207 12.1021 2.61621 12.8491 3.12158 13.6035C3.92236 14.7974 5.02344 16.0425 6.39062 17.3047C8.65625 19.397 10.8999 20.8423 10.9951 20.9009L11.5737 21.272C11.8301 21.4356 12.1597 21.4356 12.416 21.272L12.9946 20.9009C13.0898 20.8399 15.3311 19.397 17.5991 17.3047C18.9663 16.0425 20.0674 14.7974 20.8682 13.6035C21.3735 12.8491 21.7715 12.1021 22.0449 11.3819C22.3745 10.52 22.5405 9.67287 22.5405 8.85988C22.543 7.99806 22.3696 7.16066 22.0303 6.37209Z" fill="#79818C"/>
<path fill-rule="evenodd" clip-rule="evenodd" d="M11.9961 3.94289C11.7764 3.76467 11.5444 3.60109 11.3003 3.45217C10.2798 2.82961 9.10547 2.50002 7.90185 2.50002C7.03516 2.50002 6.19531 2.66603 5.40186 2.99562C4.63525 3.31301 3.94434 3.76955 3.35107 4.3506C2.76025 4.92707 2.28828 5.61388 1.96191 6.37209C1.62256 7.16066 1.44922 7.99806 1.44922 8.85988C1.44922 9.67287 1.61523 10.52 1.94482 11.3819C2.2207 12.1021 2.61621 12.8491 3.12158 13.6035C3.92236 14.7974 5.02344 16.0425 6.39062 17.3047C8.65625 19.397 10.8999 20.8423 10.9951 20.9009L11.5737 21.272C11.8301 21.4356 12.1597 21.4356 12.416 21.272L12.9946 20.9009C13.0898 20.8399 15.3311 19.397 17.5991 17.3047C18.9663 16.0425 20.0674 14.7974 20.8682 13.6035C21.3735 12.8491 21.7715 12.1021 22.0449 11.3819C22.3745 10.52 22.5405 9.67287 22.5405 8.85988C22.543 7.99806 22.3696 7.16066 22.0303 6.37209C21.703 5.61437 21.2312 4.92772 20.6411 4.3506C20.0506 3.77176 19.3544 3.31176 18.5903 2.99562C17.798 2.6665 16.9483 2.49804 16.0903 2.50002C14.8867 2.50002 13.7124 2.82961 12.6919 3.45217C12.4478 3.60109 12.2158 3.76467 11.9961 3.94289ZM19.2411 5.77884C18.8335 5.37934 18.353 5.06187 17.8257 4.84368C17.278 4.61617 16.688 4.49865 16.0949 4.50001C15.2571 4.50001 14.4388 4.72923 13.7335 5.15954C13.5647 5.26252 13.4057 5.37474 13.256 5.49617L11.9961 6.51808L10.7362 5.49617C10.5865 5.37474 10.4276 5.26255 10.2588 5.15957C9.5534 4.72926 8.73965 4.50002 7.90185 4.50002C7.29498 4.50002 6.71615 4.61537 6.16907 4.84262C5.63907 5.06204 5.16128 5.37713 4.75051 5.77944C4.347 6.17314 4.02194 6.64486 3.79903 7.16267C3.56689 7.70215 3.44922 8.2707 3.44922 8.85988C3.44922 9.39877 3.55915 10.0037 3.81249 10.6664C4.02637 11.2247 4.34693 11.839 4.78254 12.4894C5.47437 13.5206 6.46298 14.6495 7.74751 15.8354C8.81105 16.8176 9.87719 17.6546 10.6925 18.2548C11.3629 18.7484 11.8446 19.0678 11.9943 19.1657C12.4037 18.8969 14.3175 17.6109 16.2425 15.8352C17.527 14.6493 18.5149 13.5214 19.2067 12.4902C19.645 11.8359 19.9657 11.2236 20.1751 10.672C20.4288 10.0088 20.5405 9.39337 20.5405 8.85421C20.5422 8.26949 20.4256 7.70351 20.194 7.16451C19.9698 6.64571 19.6451 6.17401 19.2411 5.77884Z" fill="#79818C"/>
</svg>
