<svg width="30" height="30" viewBox="0 0 30 30" fill="none" xmlns="http://www.w3.org/2000/svg">
<path d="M10.7143 5H19.2857C20.8012 5 22.2547 5.60204 23.3263 6.67368C24.398 7.74531 25 9.19876 25 10.7143V19.2857C25 20.8012 24.398 22.2547 23.3263 23.3263C22.2547 24.398 20.8012 25 19.2857 25H10.7143C9.19876 25 7.74531 24.398 6.67368 23.3263C5.60204 22.2547 5 20.8012 5 19.2857V10.7143C5 9.19876 5.60204 7.74531 6.67368 6.67368C7.74531 5.60204 9.19876 5 10.7143 5ZM15 19.2857C16.1366 19.2857 17.2267 18.8342 18.0305 18.0305C18.8342 17.2267 19.2857 16.1366 19.2857 15C19.2857 13.8634 18.8342 12.7733 18.0305 11.9695C17.2267 11.1658 16.1366 10.7143 15 10.7143C13.8634 10.7143 12.7733 11.1658 11.9695 11.9695C11.1658 12.7733 10.7143 13.8634 10.7143 15C10.7143 16.1366 11.1658 17.2267 11.9695 18.0305C12.7733 18.8342 13.8634 19.2857 15 19.2857ZM19.92 11.3486C20.0903 11.3543 20.2599 11.3257 20.4189 11.2645C20.5779 11.2033 20.723 11.1107 20.8454 10.9922C20.9679 10.8738 21.0653 10.732 21.1318 10.5751C21.1983 10.4183 21.2326 10.2496 21.2326 10.0793C21.2326 9.90892 21.1983 9.7403 21.1318 9.58346C21.0653 9.42661 20.9679 9.28476 20.8454 9.16633C20.723 9.0479 20.5779 8.95532 20.4189 8.89411C20.2599 8.83289 20.0903 8.80429 19.92 8.81C19.5907 8.82105 19.2786 8.95961 19.0496 9.19645C18.8206 9.43328 18.6926 9.74984 18.6926 10.0793C18.6926 10.4087 18.8206 10.7253 19.0496 10.9621C19.2786 11.199 19.5907 11.3375 19.92 11.3486Z" fill="#D1D1D1"/>
</svg>
