<svg width="18" height="10" viewBox="0 0 18 10" fill="none" xmlns="http://www.w3.org/2000/svg">
<path d="M2.24996 4.99998C2.24996 3.57498 3.40829 2.41665 4.83329 2.41665H8.16663V0.833313H4.83329C2.53329 0.833313 0.666626 2.69998 0.666626 4.99998C0.666626 7.29998 2.53329 9.16665 4.83329 9.16665H8.16663V7.58331H4.83329C3.40829 7.58331 2.24996 6.42498 2.24996 4.99998ZM5.66663 5.83331H12.3333V4.16665H5.66663V5.83331ZM13.1666 0.833313H9.83329V2.41665H13.1666C14.5916 2.41665 15.75 3.57498 15.75 4.99998C15.75 6.42498 14.5916 7.58331 13.1666 7.58331H9.83329V9.16665H13.1666C15.4666 9.16665 17.3333 7.29998 17.3333 4.99998C17.3333 2.69998 15.4666 0.833313 13.1666 0.833313Z" fill="#79818C"/>
</svg>
