<svg width="14" height="12" viewBox="0 0 14 12" fill="none" xmlns="http://www.w3.org/2000/svg">
<path d="M0.600098 1.30362C0.600098 0.804779 0.998067 0.400391 1.48899 0.400391H12.5112C13.0021 0.400391 13.4001 0.804779 13.4001 1.30362C13.4001 1.80245 13.0021 2.20684 12.5112 2.20684H1.48899C0.998066 2.20684 0.600098 1.80245 0.600098 1.30362Z" fill="#1F1F25"/>
<path d="M0.600098 6.00039C0.600098 5.50155 0.998067 5.09717 1.48899 5.09717H12.5112C13.0021 5.09717 13.4001 5.50155 13.4001 6.00039C13.4001 6.49923 13.0021 6.90362 12.5112 6.90362H1.48899C0.998066 6.90362 0.600098 6.49923 0.600098 6.00039Z" fill="#1F1F25"/>
<path d="M0.600098 10.6972C0.600098 10.1983 0.998067 9.79394 1.48899 9.79394H12.5112C13.0021 9.79394 13.4001 10.1983 13.4001 10.6972C13.4001 11.196 13.0021 11.6004 12.5112 11.6004H1.48899C0.998066 11.6004 0.600098 11.196 0.600098 10.6972Z" fill="#1F1F25"/>
</svg>
