<svg width="22" height="22" viewBox="0 0 22 22" fill="none" xmlns="http://www.w3.org/2000/svg">
<path d="M20.3352 19.4688C18.0103 19.4688 15.442 19.4688 14.7175 19.4688V18.1237H19.8884C19.4542 16.816 19.0705 15.6609 19.0695 15.6576C18.6359 15.6576 17.1164 15.6576 15.1676 15.6576C13.9965 16.7628 12.9138 17.7791 11.9438 19.0941L10.9094 20.4966L9.87511 19.094C8.89639 17.767 7.79007 16.7329 6.65153 15.6576C4.39963 15.6576 2.75149 15.6576 2.74948 15.6576C2.74274 15.678 2.3615 16.8258 1.93051 18.1237H7.10148V19.4688C6.10326 19.4688 3.58301 19.4688 1.48376 19.4688C1.07347 20.7041 0.719544 21.7699 0.709473 21.8003H21.1095C21.0996 21.7704 20.7456 20.7044 20.3352 19.4688Z" fill="#79818C"/>
<path d="M10.9154 18.3593C14.0015 14.1751 18.3954 12.5607 18.3954 7.59833C18.3954 3.35899 15.2016 0.200195 10.9154 0.200195C6.63049 0.200195 3.43533 3.35899 3.43533 7.59837C3.43533 12.5601 7.83057 14.1764 10.9154 18.3593ZM10.9154 5.85868C12.0391 5.85868 12.9554 6.76485 12.9554 7.87637C12.9554 8.98743 12.0391 9.89406 10.9154 9.89406C9.79149 9.89406 8.87534 8.98743 8.87534 7.87637C8.87534 6.76485 9.79149 5.85868 10.9154 5.85868Z" fill="#79818C"/>
</svg>
