<svg width="14" height="4" viewBox="0 0 14 4" fill="none" xmlns="http://www.w3.org/2000/svg">
<path d="M3.66663 2.00004C3.66663 2.44207 3.49103 2.86599 3.17847 3.17855C2.86591 3.49111 2.44199 3.66671 1.99996 3.66671C1.55793 3.66671 1.13401 3.49111 0.821449 3.17855C0.508889 2.86599 0.333294 2.44207 0.333294 2.00004C0.333294 1.55801 0.508889 1.13409 0.821449 0.82153C1.13401 0.508969 1.55793 0.333374 1.99996 0.333374C2.44199 0.333374 2.86591 0.508969 3.17847 0.82153C3.49103 1.13409 3.66663 1.55801 3.66663 2.00004ZM8.66663 2.00004C8.66663 2.44207 8.49103 2.86599 8.17847 3.17855C7.86591 3.49111 7.44199 3.66671 6.99996 3.66671C6.55793 3.66671 6.13401 3.49111 5.82145 3.17855C5.50889 2.86599 5.33329 2.44207 5.33329 2.00004C5.33329 1.55801 5.50889 1.13409 5.82145 0.82153C6.13401 0.508969 6.55793 0.333374 6.99996 0.333374C7.44199 0.333374 7.86591 0.508969 8.17847 0.82153C8.49103 1.13409 8.66663 1.55801 8.66663 2.00004ZM13.6666 2.00004C13.6666 2.44207 13.491 2.86599 13.1785 3.17855C12.8659 3.49111 12.442 3.66671 12 3.66671C11.5579 3.66671 11.134 3.49111 10.8214 3.17855C10.5089 2.86599 10.3333 2.44207 10.3333 2.00004C10.3333 1.55801 10.5089 1.13409 10.8214 0.82153C11.134 0.508969 11.5579 0.333374 12 0.333374C12.442 0.333374 12.8659 0.508969 13.1785 0.82153C13.491 1.13409 13.6666 1.55801 13.6666 2.00004Z" fill="#1F1F25"/>
</svg>
