<svg width="20" height="20" viewBox="0 0 20 20" fill="none" xmlns="http://www.w3.org/2000/svg">
<path fill-rule="evenodd" clip-rule="evenodd" d="M7.50016 10C8.64715 10 9.61373 9.22759 9.9081 8.17455H16.0319C16.3826 8.17455 16.6668 7.89028 16.6668 7.53962C16.6668 7.18897 16.3826 6.9047 16.0319 6.9047H9.92885C9.66179 5.8114 8.67573 5 7.50016 5C6.32459 5 5.33853 5.8114 5.07147 6.9047H3.96842C3.61776 6.9047 3.3335 7.18897 3.3335 7.53962C3.3335 7.89028 3.61776 8.17455 3.96842 8.17455H5.09222C5.08761 8.15803 5.08315 8.14144 5.07887 8.12479C5.35632 9.20316 6.33519 10 7.50016 10ZM7.50016 8.93773C8.2942 8.93773 8.93789 8.29403 8.93789 7.5C8.93789 6.70597 8.2942 6.06227 7.50016 6.06227C6.70613 6.06227 6.06243 6.70597 6.06243 7.5C6.06243 8.29403 6.70613 8.93773 7.50016 8.93773ZM12.5002 15C13.6181 15 14.5647 14.2662 14.8845 13.2539H16.0319C16.3826 13.2539 16.6668 12.9696 16.6668 12.619C16.6668 12.2683 16.3826 11.984 16.0319 11.984H14.9469C14.7091 10.8509 13.704 10 12.5002 10C11.2963 10 10.2912 10.8509 10.0535 11.984H3.96842C3.61776 11.984 3.3335 12.2683 3.3335 12.619C3.3335 12.9696 3.61776 13.2539 3.96842 13.2539H10.1158C10.4356 14.2662 11.3822 15 12.5002 15ZM12.5002 13.9377C13.2942 13.9377 13.9379 13.294 13.9379 12.5C13.9379 11.706 13.2942 11.0623 12.5002 11.0623C11.7061 11.0623 11.0624 11.706 11.0624 12.5C11.0624 13.294 11.7061 13.9377 12.5002 13.9377Z" fill="#367EE7"/>
</svg>
