<?xml version="1.0" encoding="UTF-8"?>
<svg id="SVGDoc" width="28" height="28" xmlns="http://www.w3.org/2000/svg" version="1.1" xmlns:xlink="http://www.w3.org/1999/xlink" xmlns:avocode="https://avocode.com/" viewBox="0 0 28 28"><defs></defs><desc>Generated with Avocode.</desc><g><g><title>carbon:chart-treemap</title><g><title>Background</title></g><g><title>Vector</title><path d="M23.755,2.63c0.4308,0.00043 0.8439,0.17177 1.1486,0.47643c0.3046,0.30465 0.476,0.71773 0.4764,1.14857v19.5c-0.0004,0.4308 -0.1718,0.8439 -0.4764,1.1486c-0.3047,0.3046 -0.7178,0.476 -1.1486,0.4764h-19.5c-0.43084,-0.0004 -0.84392,-0.1718 -1.14857,-0.4764c-0.30465,-0.3047 -0.476,-0.7178 -0.47643,-1.1486v-19.5c0.00043,-0.43084 0.17177,-0.84392 0.47643,-1.14857c0.30465,-0.30465 0.71773,-0.476 1.14857,-0.47643zM12.38,17.255v-13h-8.125v13zM12.38,18.88h-8.125v4.875h8.125zM23.755,14.005h-9.75v9.75h9.75zM23.755,12.38v-8.125h-9.75v8.125z" fill="#5e5f62" fill-opacity="1"></path></g></g></g></svg>