<?xml version="1.0" encoding="UTF-8"?>
<svg id="SVGDoc" width="28" height="28" xmlns="http://www.w3.org/2000/svg" version="1.1" xmlns:xlink="http://www.w3.org/1999/xlink" xmlns:avocode="https://avocode.com/" viewBox="0 0 28 28"><defs></defs><desc>Generated with Avocode.</desc><g><g><title>carbon:shopping-bag</title><g><title>Background</title></g><g><title>Vector</title><path d="M25.1599,10.81127c0.0834,0.09465 0.1453,0.2062 0.1816,0.32703c0.0362,0.12082 0.0459,0.24805 0.0284,0.37297l-1.6275,10.63125c-0.0633,0.4173 -0.2752,0.7977 -0.5968,1.071c-0.3216,0.2734 -0.7312,0.4213 -1.1532,0.4165h-15.97749c-0.42204,0.0048 -0.83158,-0.1431 -1.15317,-0.4165c-0.32159,-0.2733 -0.53355,-0.6537 -0.59683,-1.071l-1.645,-10.63125c-0.01903,-0.12541 -0.01058,-0.25345 0.02479,-0.37526c0.03536,-0.12182 0.09679,-0.23449 0.18002,-0.3302c0.08323,-0.09572 0.18628,-0.1722 0.302,-0.22413c0.11572,-0.05194 0.24136,-0.0781 0.36819,-0.07666h5.25v-3.5c0,-0.6962 0.27656,-1.36387 0.76884,-1.85616c0.49229,-0.49229 1.15996,-0.76885 1.85616,-0.76885h5.24999c0.6962,0 1.3639,0.27656 1.8562,0.76884c0.4922,0.49228 0.7688,1.15996 0.7688,1.85615v3.5h5.25c0.1264,-0.00001 0.2513,0.02736 0.3661,0.08023c0.1148,0.05287 0.2168,0.12998 0.2989,0.22602zM10.49491,10.505h6.99999v-3.5c0,-0.23206 -0.0922,-0.45462 -0.2563,-0.61872c-0.1641,-0.16409 -0.3866,-0.25628 -0.6187,-0.25628h-5.24999c-0.23207,0 -0.45463,0.09219 -0.61872,0.25628c-0.16409,0.1641 -0.25628,0.38666 -0.25628,0.61872zM23.4712,12.255h-18.95254l1.47875,9.625h15.99499z" fill="#5e5f62" fill-opacity="1"></path></g></g></g></svg>