<?xml version="1.0" encoding="UTF-8"?>
<svg id="SVGDoc" width="28" height="28" xmlns="http://www.w3.org/2000/svg" version="1.1" xmlns:xlink="http://www.w3.org/1999/xlink" xmlns:avocode="https://avocode.com/" viewBox="0 0 28 28"><defs></defs><desc>Generated with Avocode.</desc><g><g><title>carbon:connection-send</title><g><title>Background</title></g><g><title>Vector</title><path d="M7,7v0h1.75v0v3.5v0h-1.75v0z" fill="#273142" fill-opacity="1"></path></g><g><title>Vector</title><path d="M7,12.25v0h1.75v0v3.5v0h-1.75v0z" fill="#273142" fill-opacity="1"></path></g><g><title>Vector</title><path d="M12.25,7v0h1.75v0v3.5v0h-1.75v0z" fill="#273142" fill-opacity="1"></path></g><g><title>Vector</title><path d="M12.25,12.25v0h1.75v0v3.5v0h-1.75v0z" fill="#273142" fill-opacity="1"></path></g><g><title>Vector</title><path d="M7,17.5v0h1.75v0v3.5v0h-1.75v0z" fill="#273142" fill-opacity="1"></path></g><g><title>Vector</title><path d="M12.25,17.5v0h1.75v0v3.5v0h-1.75v0z" fill="#273142" fill-opacity="1"></path></g><g><title>Vector</title><path d="M26.25,26.25h-24.5v-22.75c0,-0.46413 0.18437,-0.90925 0.51256,-1.23744c0.32819,-0.32819 0.77331,-0.51256 1.23744,-0.51256h14c0.4641,0 0.9092,0.18437 1.2374,0.51256c0.3282,0.32819 0.5126,0.77331 0.5126,1.23744v21h5.25v-7h1.75zM17.5,24.5v-21h-14v21zM26.25,16.1875c0,-0.4641 -0.1844,-0.9092 -0.5126,-1.2374c-0.3282,-0.3282 -0.7733,-0.5126 -1.2374,-0.5126h-5.25v1.75h5.25v1.3125h1.75z" fill="#273142" fill-opacity="1"></path></g></g></g></svg>