<?xml version="1.0" encoding="UTF-8"?>
<svg id="SVGDoc" width="28" height="28" xmlns="http://www.w3.org/2000/svg" version="1.1" xmlns:xlink="http://www.w3.org/1999/xlink" xmlns:avocode="https://avocode.com/" viewBox="0 0 28 28"><defs></defs><desc>Generated with Avocode.</desc><g><g><title>carbon:home</title><g><title>Background</title></g><g><title>Vector</title><path d="M27.13,11.74904l-1.0876,1.37546l-1.5374,-1.1987v10.8237c-0.0009,0.4639 -0.1856,0.9085 -0.5136,1.2365c-0.328,0.3279 -0.7726,0.5126 -1.2364,0.5135h-17.5c-0.46384,-0.0009 -0.90843,-0.1856 -1.23642,-0.5135c-0.32798,-0.328 -0.51266,-0.7726 -0.51358,-1.2365v-10.8316l-1.53737,1.1988l-1.08763,-1.37554l12.5737,-9.80437c0.1553,-0.12105 0.3466,-0.18679 0.5434,-0.18679c0.1969,0 0.3881,0.06574 0.5434,0.18679zM15.755,15.7495h-3.5v7h3.5zM22.755,22.7495v-12.18696l-8.75,-6.825l-8.75,6.81625v12.19571h5.25v-7c0.00046,-0.464 0.18499,-0.9088 0.5131,-1.2369c0.3281,-0.3281 0.7729,-0.5126 1.2369,-0.5131h3.5c0.464,0.0005 0.9088,0.185 1.2369,0.5131c0.3281,0.3281 0.5126,0.7729 0.5131,1.2369v7z" fill="#5e5f62" fill-opacity="1"></path></g></g></g></svg>