<svg width="40" height="40" viewBox="0 0 40 40" fill="none" xmlns="http://www.w3.org/2000/svg">
<path d="M12.5403 13.9585L15.9796 17.3978L12.5403 20.8372L14.6616 22.9585L18.1009 19.5191L21.5403 22.9585L23.6616 20.8372L20.2223 17.3978L23.6616 13.9585L21.5403 11.8372L18.1009 15.2765L14.6616 11.8372L12.5403 13.9585Z" fill="#79818C"/>
<path fill-rule="evenodd" clip-rule="evenodd" d="M27.4848 7.67183C22.2127 2.39975 13.665 2.39975 8.3929 7.67183C3.12082 12.9439 3.12082 21.4916 8.3929 26.7637C13.3065 31.6773 21.0653 32.0114 26.3659 27.7661L33.4398 34.84L35.5611 32.7187L28.4872 25.6448C32.7325 20.3443 32.3983 12.5854 27.4848 7.67183ZM10.5142 9.79315C14.6147 5.69265 21.263 5.69265 25.3635 9.79315C29.464 13.8937 29.464 20.5419 25.3635 24.6424C21.263 28.7429 14.6147 28.7429 10.5142 24.6424C6.41372 20.5419 6.41372 13.8937 10.5142 9.79315Z" fill="#79818C"/>
</svg>
