<svg width="22" height="22" viewBox="0 0 22 22" fill="none" xmlns="http://www.w3.org/2000/svg">
<path d="M10.6362 3C12.9207 3 14.7726 4.87226 14.7726 7.18182C14.7726 9.49138 12.9207 11.3636 10.6362 11.3636C8.35175 11.3636 6.49984 9.49138 6.49984 7.18182C6.49984 4.87226 8.35175 3 10.6362 3ZM10.6362 5.38961C10.1661 5.38961 9.71515 5.57843 9.3827 5.91454C9.05025 6.25064 8.86348 6.7065 8.86348 7.18182C8.86348 7.65714 9.05025 8.113 9.3827 8.4491C9.71515 8.7852 10.1661 8.97403 10.6362 8.97403C11.1064 8.97403 11.5573 8.7852 11.8897 8.4491C12.2222 8.113 12.4089 7.65714 12.4089 7.18182C12.4089 6.7065 12.2222 6.25064 11.8897 5.91454C11.5573 5.57843 11.1064 5.38961 10.6362 5.38961ZM7.02843 12.8595C7.22584 12.854 7.43026 12.8982 7.62511 13.0018C8.52447 13.4809 9.54834 13.7532 10.6362 13.7532C11.7241 13.7532 12.7479 13.4809 13.6473 13.0018C14.4267 12.5872 15.3635 13.1198 15.3635 14.0099C15.3635 14.4885 15.1004 14.9295 14.6802 15.1487C14.1862 15.4062 13.6594 15.6058 13.1176 15.7671L15.0172 17.6877C15.4787 18.1543 15.4787 18.9107 15.0172 19.3772C14.7868 19.6108 14.4842 19.7273 14.1817 19.7273C13.8791 19.7273 13.5765 19.6108 13.3461 19.3772L10.6362 16.6376L7.92634 19.3772C7.46543 19.8438 6.71608 19.8438 6.25517 19.3772C5.79367 18.9107 5.79367 18.1543 6.25517 17.6877L8.15485 15.7671C7.61299 15.6058 7.08617 15.4074 6.59217 15.1499C6.17204 14.9301 5.90894 14.4885 5.90894 14.0099C5.90894 13.3423 6.4362 12.876 7.02843 12.8595Z" fill="#1F1F25"/>
</svg>
