<svg width="12" height="14" viewBox="0 0 12 14" fill="none" xmlns="http://www.w3.org/2000/svg">
<path d="M0.23839 4.30548C-0.218874 4.75192 0.0196585 5.0498 0.631082 4.87334C2.08168 4.4548 4.5838 3.87009 5.72271 4.41965C5.72271 4.41965 2.39189 7.08301 2.89392 12.3501C2.95468 12.9891 3.42956 13.5 3.88682 13.5C4.34431 13.5 4.64833 12.9824 4.64693 12.3402C4.64408 10.8888 4.88756 8.18413 6.34675 4.85553C6.34675 4.85553 7.43209 6.29466 7.75828 7.86507C7.88887 8.49327 8.13165 8.58128 8.30084 7.96219C8.48597 7.28227 8.54458 6.34536 8.00277 5.3635C8.00277 5.3635 10.075 6.49706 11.4248 7.95808C11.8588 8.42759 12.1168 8.34851 11.9476 7.72968C11.5918 6.43045 10.5427 4.41382 7.45044 3.81378C7.45044 3.81378 8.64109 3.22836 10.085 3.28631C10.7207 3.31155 10.9297 3.0108 10.3636 2.71774C9.67473 2.36072 8.49815 2.1215 6.58647 2.67615C6.58647 2.67615 5.66532 0.409951 2.6893 0.502776C2.0536 0.522711 2.02596 0.83743 2.59756 1.11847C3.58472 1.60385 4.94885 2.38618 5.21857 3.11202C5.21897 3.11207 2.15169 2.43697 0.23839 4.30548Z" fill="white"/>
</svg>
