<svg width="15" height="14" viewBox="0 0 15 14" fill="none" xmlns="http://www.w3.org/2000/svg">
<path fill-rule="evenodd" clip-rule="evenodd" d="M4.82122 0.532843C5.6705 0.18106 6.58075 0 7.5 0C8.41925 0 9.3295 0.18106 10.1788 0.532843C11.0281 0.884626 11.7997 1.40024 12.4497 2.05025C13.0998 2.70026 13.6154 3.47194 13.9672 4.32122C14.3189 5.1705 14.5 6.08075 14.5 7C14.5 8.85652 13.7625 10.637 12.4497 11.9497C11.137 13.2625 9.35652 14 7.5 14C6.58075 14 5.6705 13.8189 4.82122 13.4672C3.97194 13.1154 3.20026 12.5998 2.55025 11.9497C1.2375 10.637 0.5 8.85652 0.5 7C0.5 5.14348 1.2375 3.36301 2.55025 2.05025C3.20026 1.40024 3.97194 0.884626 4.82122 0.532843ZM8.20001 3.49998H6.80001V6.29998H4.00001V7.69998H6.80001V10.5H8.20001V7.69998H11V6.29998H8.20001V3.49998Z" fill="#1F1F25"/>
</svg>
