<svg width="12" height="12" viewBox="0 0 12 12" fill="none" xmlns="http://www.w3.org/2000/svg">
<path d="M6 0.9375C6.14918 0.9375 6.29226 0.996763 6.39775 1.10225C6.50324 1.20774 6.5625 1.35082 6.5625 1.5V5.4375H10.5C10.6492 5.4375 10.7923 5.49676 10.8977 5.60225C11.0032 5.70774 11.0625 5.85082 11.0625 6C11.0625 6.14918 11.0032 6.29226 10.8977 6.39775C10.7923 6.50324 10.6492 6.5625 10.5 6.5625H6.5625V10.5C6.5625 10.6492 6.50324 10.7923 6.39775 10.8977C6.29226 11.0032 6.14918 11.0625 6 11.0625C5.85082 11.0625 5.70774 11.0032 5.60225 10.8977C5.49676 10.7923 5.4375 10.6492 5.4375 10.5V6.5625H1.5C1.35082 6.5625 1.20774 6.50324 1.10225 6.39775C0.996763 6.29226 0.9375 6.14918 0.9375 6C0.9375 5.85082 0.996763 5.70774 1.10225 5.60225C1.20774 5.49676 1.35082 5.4375 1.5 5.4375H5.4375V1.5C5.4375 1.35082 5.49676 1.20774 5.60225 1.10225C5.70774 0.996763 5.85082 0.9375 6 0.9375Z" fill="#1F1F25"/>
</svg>
