<svg width="20" height="20" viewBox="0 0 20 20" fill="none" xmlns="http://www.w3.org/2000/svg">
<path d="M9.99984 16.667C6.32484 16.667 3.33317 13.6753 3.33317 10.0003C3.33317 6.32533 6.32484 3.33366 9.99984 3.33366C13.6748 3.33366 16.6665 6.32533 16.6665 10.0003C16.6665 13.6753 13.6748 16.667 9.99984 16.667ZM9.99984 1.66699C8.90549 1.66699 7.82186 1.88254 6.81081 2.30133C5.79976 2.72012 4.8811 3.33395 4.10728 4.10777C2.54448 5.67057 1.6665 7.79019 1.6665 10.0003C1.6665 12.2105 2.54448 14.3301 4.10728 15.8929C4.8811 16.6667 5.79976 17.2805 6.81081 17.6993C7.82186 18.1181 8.90549 18.3337 9.99984 18.3337C12.21 18.3337 14.3296 17.4557 15.8924 15.8929C17.4552 14.3301 18.3332 12.2105 18.3332 10.0003C18.3332 8.90598 18.1176 7.82234 17.6988 6.8113C17.28 5.80025 16.6662 4.88159 15.8924 4.10777C15.1186 3.33395 14.1999 2.72012 13.1889 2.30133C12.1778 1.88254 11.0942 1.66699 9.99984 1.66699ZM10.8332 5.83366H9.1665V9.16699H5.83317V10.8337H9.1665V14.167H10.8332V10.8337H14.1665V9.16699H10.8332V5.83366Z" fill="#1F1F25"/>
</svg>
