<svg width="12" height="12" viewBox="0 0 12 12" fill="none" xmlns="http://www.w3.org/2000/svg">
<path d="M9.60006 0.666504H2.40006V3.03687H9.60006V0.666504ZM10.2001 5.99984C10.0409 5.99984 9.88832 5.9374 9.7758 5.82627C9.66328 5.71514 9.60006 5.56441 9.60006 5.40724C9.60006 5.25008 9.66328 5.09935 9.7758 4.98822C9.88832 4.87709 10.0409 4.81465 10.2001 4.81465C10.3592 4.81465 10.5118 4.87709 10.6243 4.98822C10.7368 5.09935 10.8001 5.25008 10.8001 5.40724C10.8001 5.56441 10.7368 5.71514 10.6243 5.82627C10.5118 5.9374 10.3592 5.99984 10.2001 5.99984ZM8.40006 10.148H3.60006V7.18502H8.40006V10.148ZM10.2001 3.62947H1.80006C1.32267 3.62947 0.864834 3.81677 0.527269 4.15017C0.189703 4.48356 6.10352e-05 4.93575 6.10352e-05 5.40724V8.9628H2.40006V11.3332H9.60006V8.9628H12.0001V5.40724C12.0001 4.93575 11.8104 4.48356 11.4729 4.15017C11.1353 3.81677 10.6775 3.62947 10.2001 3.62947Z" fill="#ACAEB3"/>
</svg>
