<svg width="18" height="16" viewBox="0 0 18 16" fill="none" xmlns="http://www.w3.org/2000/svg">
<path d="M9.00033 0.5C4.41699 0.5 0.666992 3.5 0.666992 7.16667C0.666992 8.91667 1.50033 10.5833 3.00033 11.75C3.00033 12.25 2.66699 13.5833 0.666992 15.5C0.666992 15.5 3.58366 15.5 6.08366 13.4167C7.00033 13.6667 8.00033 13.8333 9.00033 13.8333C13.5837 13.8333 17.3337 10.8333 17.3337 7.16667C17.3337 3.5 13.5837 0.5 9.00033 0.5ZM9.83366 10.5H8.16699V8.83333H9.83366V10.5ZM11.3337 6.33333C11.0837 6.66667 10.7503 6.83333 10.417 7C10.167 7.16667 10.0837 7.25 10.0003 7.41667C9.83366 7.58333 9.83366 7.75 9.83366 8H8.16699C8.16699 7.58333 8.25033 7.33333 8.41699 7.08333C8.58366 6.91667 8.91699 6.66667 9.33366 6.41667C9.58366 6.33333 9.75033 6.16667 9.83366 6C9.91699 5.83333 10.0003 5.58333 10.0003 5.41667C10.0003 5.16667 9.91699 5 9.75033 4.83333C9.58366 4.66667 9.33366 4.58333 9.08366 4.58333C8.83366 4.58333 8.66699 4.66667 8.50033 4.75C8.33366 4.83333 8.25033 5 8.25033 5.25H6.58366C6.66699 4.66667 6.91699 4.16667 7.33366 3.83333C7.75033 3.5 8.33366 3.41667 9.08366 3.41667C9.83366 3.41667 10.5003 3.58333 10.917 3.91667C11.3337 4.25 11.5837 4.75 11.5837 5.33333C11.667 5.66667 11.5837 6 11.3337 6.33333Z" fill="white"/>
</svg>
