<svg width="12" height="12" viewBox="0 0 12 12" fill="none" xmlns="http://www.w3.org/2000/svg">
<path d="M6 0.3125C4.87512 0.3125 3.7755 0.646066 2.8402 1.27102C1.90489 1.89597 1.17591 2.78423 0.745438 3.82349C0.314964 4.86274 0.202333 6.00631 0.421786 7.10958C0.64124 8.21284 1.18292 9.22626 1.97833 10.0217C2.77374 10.8171 3.78716 11.3588 4.89043 11.5782C5.99369 11.7977 7.13726 11.685 8.17652 11.2546C9.21577 10.8241 10.104 10.0951 10.729 9.15981C11.3539 8.2245 11.6875 7.12488 11.6875 6C11.6858 4.49211 11.086 3.04646 10.0198 1.98022C8.95354 0.913973 7.5079 0.314208 6 0.3125ZM6 10.8125C5.04818 10.8125 4.11773 10.5303 3.32632 10.0014C2.53491 9.47264 1.91808 8.72103 1.55383 7.84166C1.18959 6.9623 1.09428 5.99466 1.27997 5.06113C1.46566 4.12759 1.92401 3.27009 2.59705 2.59705C3.27009 1.92401 4.1276 1.46566 5.06113 1.27997C5.99466 1.09428 6.9623 1.18958 7.84167 1.55383C8.72104 1.91808 9.47265 2.53491 10.0015 3.32632C10.5303 4.11773 10.8125 5.04818 10.8125 6C10.8111 7.27591 10.3036 8.49915 9.40136 9.40135C8.49915 10.3036 7.27591 10.8111 6 10.8125ZM6.65625 8.84375C6.65625 8.97354 6.61776 9.10042 6.54565 9.20834C6.47354 9.31626 6.37105 9.40038 6.25114 9.45005C6.13122 9.49972 5.99928 9.51271 5.87197 9.48739C5.74468 9.46207 5.62774 9.39957 5.53596 9.30779C5.44419 9.21601 5.38168 9.09908 5.35636 8.97178C5.33104 8.84448 5.34404 8.71253 5.39371 8.59261C5.44338 8.4727 5.52749 8.37021 5.63541 8.2981C5.74333 8.22599 5.87021 8.1875 6 8.1875C6.17405 8.1875 6.34097 8.25664 6.46404 8.37971C6.58711 8.50278 6.65625 8.6697 6.65625 8.84375ZM7.96875 4.90652C7.96816 5.3525 7.81644 5.78512 7.53834 6.13378C7.26024 6.48243 6.87219 6.72654 6.4375 6.82627V6.87527C6.4375 6.99131 6.39141 7.10259 6.30936 7.18463C6.22732 7.26668 6.11604 7.31277 6 7.31277C5.88397 7.31277 5.77269 7.26668 5.69064 7.18463C5.6086 7.10259 5.5625 6.99131 5.5625 6.87527V6.43777C5.5625 6.32174 5.6086 6.21046 5.69064 6.12841C5.77269 6.04637 5.88397 6.00027 6 6.00027C6.21633 6.00027 6.42779 5.93613 6.60766 5.81594C6.78752 5.69576 6.92771 5.52494 7.0105 5.32508C7.09328 5.12523 7.11494 4.90531 7.07274 4.69314C7.03053 4.48098 6.92636 4.28609 6.7734 4.13313C6.62044 3.98016 6.42555 3.87599 6.21338 3.83379C6.00122 3.79159 5.7813 3.81325 5.58144 3.89603C5.38159 3.97881 5.21077 4.119 5.09058 4.29887C4.9704 4.47873 4.90625 4.6902 4.90625 4.90652C4.90625 5.02256 4.86016 5.13384 4.77811 5.21588C4.69606 5.29793 4.58478 5.34402 4.46875 5.34402C4.35272 5.34402 4.24144 5.29793 4.15939 5.21588C4.07735 5.13384 4.03125 5.02256 4.03125 4.90652C4.03125 4.38438 4.23867 3.88362 4.60789 3.51441C4.9771 3.14519 5.47786 2.93777 6 2.93777C6.52215 2.93777 7.02291 3.14519 7.39212 3.51441C7.76133 3.88362 7.96875 4.38438 7.96875 4.90652Z" fill="#ACAEB3"/>
</svg>
