<svg width="14" height="14" viewBox="0 0 14 14" fill="none" xmlns="http://www.w3.org/2000/svg">
<g clip-path="url(#clip0)">
<path d="M7 6.10352e-05C3.14007 6.10352e-05 0 3.14014 0 7.00006C0 10.86 3.14007 14.0001 7 14.0001C10.8599 14.0001 14 10.86 14 7.00006C14 3.14014 10.8599 6.10352e-05 7 6.10352e-05ZM7 12.8334C3.7835 12.8334 1.16668 10.2166 1.16668 7.00006C1.16668 3.78356 3.7835 1.16674 7 1.16674C10.2165 1.16674 12.8333 3.78356 12.8333 7.00006C12.8333 10.2166 10.2165 12.8334 7 12.8334Z" fill="#56B77F"/>
<path d="M6.85428 9.43253C6.47335 9.43895 6.16652 9.74578 6.1601 10.1267C6.15952 10.1384 6.15952 10.1506 6.1601 10.1623C6.17352 10.5455 6.49435 10.8454 6.8776 10.8325H6.85428C7.23928 10.8261 7.54845 10.5123 7.54845 10.1267C7.5391 9.74695 7.23403 9.44185 6.85428 9.43253Z" fill="#56B77F"/>
<path d="M6.9884 3.19081C6.1659 3.16631 5.3714 3.49063 4.8009 4.08331C4.73497 4.16613 4.69997 4.26938 4.70172 4.37498C4.70465 4.63341 4.90997 4.84398 5.1684 4.8533C5.28858 4.85388 5.40465 4.81013 5.49508 4.7308C5.85675 4.35573 6.35665 4.14513 6.87758 4.14748C7.66508 4.14748 8.04426 4.57331 8.04426 5.07498C8.04426 6.1483 6.13675 6.28248 6.13675 7.67665C6.13675 8.01497 6.34675 8.63915 6.78426 8.63915C6.78776 8.63915 6.79183 8.63915 6.79593 8.63915C7.03101 8.63915 7.22176 8.4484 7.22176 8.21332C7.22176 8.05582 7.11093 7.92165 7.11093 7.76415C7.11093 6.71415 9.16426 6.56833 9.21094 4.94083C9.21091 3.94916 8.37091 3.19081 6.9884 3.19081Z" fill="#56B77F"/>
</g>
<defs>
<clipPath id="clip0">
<rect width="14" height="14" fill="white"/>
</clipPath>
</defs>
</svg>
