<svg width="20" height="20" viewBox="0 0 20 20" fill="none" xmlns="http://www.w3.org/2000/svg">
<g clip-path="url(#clip0)">
<path d="M10 4.16781V0.834473L5.83337 5.00114L10 9.16781V5.83447C11.3261 5.83447 12.5979 6.36126 13.5356 7.29894C14.4733 8.23662 15 9.50839 15 10.8345C15 12.1606 14.4733 13.4323 13.5356 14.37C12.5979 15.3077 11.3261 15.8345 10 15.8345C8.67396 15.8345 7.40219 15.3077 6.46451 14.37C5.52682 13.4323 5.00004 12.1606 5.00004 10.8345H3.33337C3.33337 12.6026 4.03575 14.2983 5.286 15.5485C6.53624 16.7988 8.23193 17.5011 10 17.5011C11.7681 17.5011 13.4638 16.7988 14.7141 15.5485C15.9643 14.2983 16.6667 12.6026 16.6667 10.8345C16.6667 9.06636 15.9643 7.37067 14.7141 6.12043C13.4638 4.87018 11.7681 4.16781 10 4.16781V4.16781Z" fill="#1F1F25"/>
</g>
<defs>
<clipPath id="clip0">
<rect width="20" height="20" fill="white" transform="translate(0 0.00109863)"/>
</clipPath>
</defs>
</svg>
