<svg width="24" height="24" viewBox="0 0 24 24" fill="none" xmlns="http://www.w3.org/2000/svg">
<path fill-rule="evenodd" clip-rule="evenodd" d="M3.69531 4.82403C3.69531 3.47236 4.79202 2.37915 6.14019 2.37915C6.78862 2.37915 7.41048 2.63674 7.86899 3.09524C8.32749 3.55374 8.58507 4.17561 8.58507 4.82403C8.58507 6.65769 6.14019 9.36452 6.14019 9.36452C6.14019 9.36452 3.69531 6.65769 3.69531 4.82403ZM5.80604 5.63074C5.91198 5.67462 6.02553 5.6972 6.14019 5.6972C6.37177 5.6972 6.59387 5.60521 6.75762 5.44146C6.8387 5.36038 6.90302 5.26412 6.9469 5.15818C6.99078 5.05224 7.01337 4.9387 7.01337 4.82403C7.01337 4.59245 6.92137 4.37036 6.75762 4.20661C6.59387 4.04285 6.37177 3.95086 6.14019 3.95086C6.02553 3.95086 5.91198 3.97344 5.80604 4.01733C5.70011 4.06121 5.60385 4.12552 5.52277 4.20661C5.44169 4.28769 5.37737 4.38394 5.33349 4.48988C5.28961 4.59582 5.26702 4.70936 5.26702 4.82403C5.26702 4.9387 5.28961 5.05224 5.33349 5.15818C5.37737 5.26412 5.44169 5.36038 5.52277 5.44146C5.60385 5.52254 5.70011 5.58686 5.80604 5.63074Z" fill="#273142"/>
<path d="M13.1051 6.09738H9.61888C9.42509 6.5987 9.17607 7.10568 8.90045 7.59738H13.1051C14.2722 7.59738 15.2183 8.5435 15.2183 9.7106C15.2183 10.8777 14.2722 11.8238 13.1051 11.8238H7.99353C5.998 11.8238 4.38031 13.4415 4.38031 15.437C4.38031 17.4326 5.998 19.0503 7.99353 19.0503H16.9938C16.9384 18.8092 16.9091 18.5581 16.9091 18.3002C16.9091 18.0424 16.9384 17.7913 16.9938 17.5503H7.99353C6.82643 17.5503 5.88031 16.6041 5.88031 15.437C5.88031 14.2699 6.82643 13.3238 7.99353 13.3238H13.1051C15.1006 13.3238 16.7183 11.7061 16.7183 9.7106C16.7183 7.71507 15.1006 6.09738 13.1051 6.09738Z" fill="#273142"/>
<path d="M22.4929 18.3003C22.4929 17.0576 21.4855 16.0503 20.2429 16.0503C19.0002 16.0503 17.9929 17.0576 17.9929 18.3003C17.9929 19.5429 19.0002 20.5503 20.2429 20.5503C21.4855 20.5503 22.4929 19.5429 22.4929 18.3003Z" fill="#273142"/>
</svg>
