<svg width="14" height="14" viewBox="0 0 14 14" fill="none" xmlns="http://www.w3.org/2000/svg">
<path fill-rule="evenodd" clip-rule="evenodd" d="M2.81238 11.1876C3.192 11.5673 3.8075 11.5673 4.18712 11.1876L11.1876 4.18712C11.5673 3.8075 11.5673 3.192 11.1876 2.81237V2.81237C10.808 2.43275 10.1925 2.43275 9.81287 2.81238L2.81237 9.81288C2.43275 10.1925 2.43275 10.808 2.81238 11.1876V11.1876Z" fill="white"/>
<path d="M8.7542 8.7542C9.09704 8.41136 9.56203 8.21875 10.0469 8.21875C10.5317 8.21875 10.9967 8.41136 11.3396 8.7542C11.6824 9.09704 11.875 9.56203 11.875 10.0469C11.875 10.5317 11.6824 10.9967 11.3396 11.3396C10.9967 11.6824 10.5317 11.875 10.0469 11.875C9.56203 11.875 9.09704 11.6824 8.7542 11.3396C8.41136 10.9967 8.21875 10.5317 8.21875 10.0469C8.21875 9.56203 8.41136 9.09704 8.7542 8.7542Z" fill="white"/>
<path d="M2.66045 2.66045C3.00329 2.31761 3.46828 2.125 3.95312 2.125C4.43797 2.125 4.90297 2.31761 5.24581 2.66045C5.58864 3.00329 5.78125 3.46828 5.78125 3.95313C5.78125 4.43798 5.58864 4.90297 5.24581 5.24581C4.90297 5.58865 4.43797 5.78125 3.95312 5.78125C3.46828 5.78125 3.00329 5.58865 2.66045 5.24581C2.31761 4.90297 2.125 4.43798 2.125 3.95313C2.125 3.46828 2.31761 3.00329 2.66045 2.66045Z" fill="white"/>
</svg>
