<svg width="15" height="15" viewBox="0 0 15 15" fill="none" xmlns="http://www.w3.org/2000/svg">
<path d="M13.8964 2.49996C13.8964 3.62183 12.9871 4.53129 11.8652 4.53129C10.7433 4.53129 9.83398 3.62183 9.83398 2.49996C9.83398 1.37821 10.7433 0.46875 11.8652 0.46875C12.9871 0.46875 13.8964 1.37821 13.8964 2.49996Z" fill="black"/>
<path d="M11.8652 5.00004C10.4864 5.00004 9.36523 3.87875 9.36523 2.49996C9.36523 1.12129 10.4864 0 11.8652 0C13.244 0 14.3652 1.12129 14.3652 2.49996C14.3652 3.87875 13.244 5.00004 11.8652 5.00004ZM11.8652 0.9375C11.0033 0.9375 10.3027 1.63879 10.3027 2.49996C10.3027 3.36124 11.0033 4.06254 11.8652 4.06254C12.7271 4.06254 13.4277 3.36124 13.4277 2.49996C13.4277 1.63879 12.7271 0.9375 11.8652 0.9375Z" fill="black"/>
<path d="M13.8964 12.5001C13.8964 13.6218 12.9871 14.5313 11.8652 14.5313C10.7433 14.5313 9.83398 13.6218 9.83398 12.5001C9.83398 11.3782 10.7433 10.4688 11.8652 10.4688C12.9871 10.4688 13.8964 11.3782 13.8964 12.5001Z" fill="black"/>
<path d="M11.8652 15C10.4864 15 9.36523 13.8787 9.36523 12.5001C9.36523 11.1213 10.4864 10 11.8652 10C13.244 10 14.3652 11.1213 14.3652 12.5001C14.3652 13.8787 13.244 15 11.8652 15ZM11.8652 10.9375C11.0033 10.9375 10.3027 11.6388 10.3027 12.5001C10.3027 13.3612 11.0033 14.0625 11.8652 14.0625C12.7271 14.0625 13.4277 13.3612 13.4277 12.5001C13.4277 11.6388 12.7271 10.9375 11.8652 10.9375Z" fill="black"/>
<path d="M5.14652 7.49996C5.14652 8.62183 4.23706 9.53117 3.1152 9.53117C1.99345 9.53117 1.08398 8.62183 1.08398 7.49996C1.08398 6.3781 1.99345 5.46875 3.1152 5.46875C4.23706 5.46875 5.14652 6.3781 5.14652 7.49996Z" fill="black"/>
<path d="M3.1152 9.99992C1.73653 9.99992 0.615234 8.87875 0.615234 7.49996C0.615234 6.12118 1.73653 5 3.1152 5C4.49398 5 5.61527 6.12118 5.61527 7.49996C5.61527 8.87875 4.49398 9.99992 3.1152 9.99992ZM3.1152 5.9375C2.25334 5.9375 1.55273 6.63868 1.55273 7.49996C1.55273 8.36124 2.25334 9.06242 3.1152 9.06242C3.97717 9.06242 4.67777 8.36124 4.67777 7.49996C4.67777 6.63868 3.97717 5.9375 3.1152 5.9375Z" fill="black"/>
<path d="M4.59242 7.20011C4.37487 7.20011 4.16361 7.08693 4.0486 6.88448C3.87797 6.5851 3.98302 6.20322 4.2824 6.0319L10.0817 2.7257C10.3811 2.55381 10.763 2.65887 10.9343 2.95939C11.1049 3.25877 10.9999 3.64065 10.7005 3.81197L4.90107 7.11817C4.80356 7.17379 4.69736 7.20011 4.59242 7.20011Z" fill="black"/>
<path d="M10.3885 12.3565C10.2835 12.3565 10.1773 12.3302 10.0798 12.2746L4.28036 8.96835C3.98098 8.79772 3.87604 8.41583 4.04667 8.11576C4.21662 7.81581 4.59908 7.71018 4.89914 7.88207L10.6985 11.1883C10.9979 11.3589 11.1029 11.7408 10.9322 12.0409C10.8166 12.2433 10.6054 12.3565 10.3885 12.3565Z" fill="black"/>
</svg>
