<svg width="24" height="24" viewBox="0 0 24 24" fill="none" xmlns="http://www.w3.org/2000/svg">
<path d="M17.4123 15.6759C16.7267 15.6759 16.1133 15.9465 15.6443 16.3705L9.21267 12.627C9.25778 12.4195 9.29386 12.212 9.29386 11.9955C9.29386 11.7791 9.25778 11.5716 9.21267 11.3641L15.5721 7.65671C16.0592 8.10773 16.6996 8.38736 17.4123 8.38736C18.13 8.38736 18.8183 8.10225 19.3258 7.59476C19.8333 7.08726 20.1184 6.39894 20.1184 5.68123C20.1184 4.96352 19.8333 4.2752 19.3258 3.76771C18.8183 3.26021 18.13 2.9751 17.4123 2.9751C16.6945 2.9751 16.0062 3.26021 15.4987 3.76771C14.9912 4.2752 14.7061 4.96352 14.7061 5.68123C14.7061 5.89772 14.7422 6.10519 14.7873 6.31266L8.4279 10.0201C7.94079 9.56904 7.30034 9.28941 6.58773 9.28941C5.87001 9.28941 5.1817 9.57452 4.6742 10.082C4.1667 10.5895 3.88159 11.2778 3.88159 11.9955C3.88159 12.7133 4.1667 13.4016 4.6742 13.9091C5.1817 14.4166 5.87001 14.7017 6.58773 14.7017C7.30034 14.7017 7.94079 14.422 8.4279 13.971L14.8505 17.7145C14.8053 17.9039 14.7783 18.1024 14.7783 18.3099C14.7783 19.7621 15.96 20.9348 17.4123 20.9348C18.8645 20.9348 20.0462 19.7621 20.0462 18.3099C20.0462 17.6113 19.7687 16.9413 19.2748 16.4474C18.7808 15.9534 18.1108 15.6759 17.4123 15.6759Z" fill="#79818C"/>
</svg>
