<svg width="20" height="20" viewBox="0 0 20 20" fill="none" xmlns="http://www.w3.org/2000/svg">
<path d="M9.99995 10.7647C8.95539 10.7647 7.95361 10.3497 7.21499 9.61112C6.47637 8.8725 6.06141 7.87072 6.06141 6.82615H7.63683C7.63683 7.45289 7.8858 8.05396 8.32897 8.49713C8.77214 8.9403 9.37321 9.18927 9.99995 9.18927C10.6267 9.18927 11.2278 8.9403 11.6709 8.49713C12.1141 8.05396 12.3631 7.45289 12.3631 6.82615H13.9385C13.9385 7.87072 13.5235 8.8725 12.7849 9.61112C12.0463 10.3497 11.0445 10.7647 9.99995 10.7647ZM9.99995 2.88761C10.6267 2.88761 11.2278 3.13658 11.6709 3.57975C12.1141 4.02292 12.3631 4.62399 12.3631 5.25073H7.63683C7.63683 4.62399 7.8858 4.02292 8.32897 3.57975C8.77214 3.13658 9.37321 2.88761 9.99995 2.88761ZM15.5139 5.25073H13.9385C13.9385 4.73352 13.8366 4.22137 13.6387 3.74352C13.4408 3.26567 13.1506 2.83149 12.7849 2.46577C12.4192 2.10004 11.985 1.80993 11.5072 1.612C11.0293 1.41407 10.5172 1.31219 9.99995 1.31219C8.95539 1.31219 7.95361 1.72715 7.21499 2.46577C6.47637 3.20439 6.06141 4.20617 6.06141 5.25073H4.486C3.61164 5.25073 2.91058 5.95179 2.91058 6.82615V16.2786C2.91058 16.6965 3.07656 17.0972 3.37201 17.3926C3.66746 17.6881 4.06817 17.8541 4.486 17.8541H15.5139C15.9317 17.8541 16.3324 17.6881 16.6279 17.3926C16.9233 17.0972 17.0893 16.6965 17.0893 16.2786V6.82615C17.0893 5.95179 16.3804 5.25073 15.5139 5.25073Z" fill="white"/>
</svg>
