<svg width="30" height="30" viewBox="0 0 30 30" fill="none" xmlns="http://www.w3.org/2000/svg">
<path fill-rule="evenodd" clip-rule="evenodd" d="M14.1967 10.7883L14.2422 11.5668L13.4835 11.4715C10.7219 11.1061 8.30932 9.86673 6.26087 7.7853L5.25941 6.75253L5.00146 7.51519C4.45521 9.21529 4.8042 11.0107 5.94223 12.2183C6.54917 12.8856 6.41261 12.9809 5.36563 12.5837C5.00146 12.4566 4.68281 12.3613 4.65247 12.4089C4.54625 12.5202 4.91042 13.966 5.19872 14.538C5.59323 15.3325 6.39744 16.111 7.27751 16.5718L8.02102 16.9372L7.14095 16.9531C6.29122 16.9531 6.26087 16.969 6.35192 17.3027C6.65539 18.3355 7.85411 19.4318 9.18939 19.9084L10.1302 20.2421L9.31078 20.7506C8.09689 21.4814 6.67056 21.8945 5.24424 21.9263C4.56143 21.9422 4 22.0058 4 22.0534C4 22.2123 5.85119 23.1021 6.92852 23.4516C10.1605 24.4844 13.9994 24.0395 16.8824 22.2759C18.9309 21.0207 20.9793 18.5261 21.9353 16.111C22.4512 14.824 22.9671 12.4725 22.9671 11.3444C22.9671 10.6135 23.0126 10.5182 23.8623 9.64429C24.363 9.13585 24.8334 8.57974 24.9245 8.42085C25.0762 8.11896 25.061 8.11896 24.2872 8.38907C22.9974 8.86574 22.8153 8.80218 23.4526 8.08719C23.923 7.57875 24.4844 6.6572 24.4844 6.38709C24.4844 6.33942 24.2568 6.41886 23.9989 6.56186C23.7258 6.72075 23.1188 6.95908 22.6636 7.10208L21.8442 7.37219L21.1007 6.84786C20.691 6.56186 20.1144 6.24409 19.811 6.14875C19.0371 5.92631 17.8535 5.95809 17.1556 6.21231C15.2589 6.92731 14.0601 8.77041 14.1967 10.7883Z" fill="#D1D1D1"/>
</svg>
