<svg width="12" height="13" viewBox="0 0 12 13" fill="none" xmlns="http://www.w3.org/2000/svg">
<path fill-rule="evenodd" clip-rule="evenodd" d="M1 12.3896C1 12.3896 0 12.3896 0 11.3896C0 10.3896 1 7.38965 6 7.38965C11 7.38965 12 10.3896 12 11.3896C12 12.3896 11 12.3896 11 12.3896H1ZM6 6.38965C6.79565 6.38965 7.55871 6.07358 8.12132 5.51097C8.68393 4.94836 9 4.1853 9 3.38965C9 2.594 8.68393 1.83094 8.12132 1.26833C7.55871 0.705719 6.79565 0.389648 6 0.389648C5.20435 0.389648 4.44129 0.705719 3.87868 1.26833C3.31607 1.83094 3 2.594 3 3.38965C3 4.1853 3.31607 4.94836 3.87868 5.51097C4.44129 6.07358 5.20435 6.38965 6 6.38965Z" fill="#1F1F25"/>
</svg>
