<svg width="30" height="30" viewBox="0 0 30 30" fill="none" xmlns="http://www.w3.org/2000/svg">
<path d="M22.7939 16.9014C23.5572 17.7036 24.3622 18.4568 25.0464 19.3388C25.3483 19.7308 25.6358 20.1354 25.8543 20.5904C26.1648 21.2373 25.883 21.9485 25.344 21.9877L21.9947 21.9849C21.1294 22.0633 20.4408 21.6881 19.8601 21.0524C19.3973 20.5442 18.9675 20.0024 18.5204 19.4788C18.3454 19.2621 18.1425 19.0683 17.9167 18.902C17.461 18.5828 17.0643 18.6794 16.8027 19.1932C16.5353 19.7154 16.4749 20.2936 16.449 20.8746C16.4131 21.7231 16.1759 21.9471 15.3825 21.9849C13.6891 22.0717 12.0821 21.7959 10.5886 20.876C9.27187 20.0668 8.25128 18.923 7.3615 17.628C5.63225 15.1065 4.30836 12.3359 3.11672 9.48683C2.84791 8.84562 3.04341 8.50121 3.7032 8.49001C4.796 8.46737 5.88917 8.46644 6.98201 8.48721C7.42619 8.49421 7.71943 8.76721 7.89192 9.21942C8.48271 10.7833 9.20575 12.2715 10.1142 13.6519C10.3571 14.0187 10.6029 14.3855 10.9551 14.6445C11.3432 14.9301 11.6393 14.8349 11.8219 14.3701C11.9369 14.0747 11.9886 13.7569 12.0145 13.4405C12.1008 12.3527 12.1123 11.2663 11.9613 10.1826C11.8679 9.50643 11.5129 9.06822 10.8861 8.94082C10.5656 8.87502 10.613 8.74621 10.7683 8.55021C11.0385 8.2114 11.2915 8 11.7975 8H15.5837C16.1802 8.126 16.3125 8.41441 16.3944 9.05982L16.3973 13.5847C16.3901 13.8339 16.5123 14.5759 16.932 14.7411C17.2655 14.8587 17.4869 14.5703 17.6881 14.3421C18.5937 13.3061 19.2406 12.0839 19.8199 10.8169C20.0757 10.2596 20.2971 9.68283 20.5098 9.10322C20.668 8.67481 20.9166 8.46341 21.3666 8.47321L25.0105 8.47741C25.1183 8.47741 25.2275 8.47741 25.3325 8.49701C25.9477 8.60901 26.1159 8.89462 25.9261 9.54003C25.6272 10.5522 25.045 11.3951 24.4772 12.2421C23.8692 13.1465 23.2194 14.0201 22.6157 14.9301C22.0623 15.7617 22.1068 16.1804 22.7939 16.9014Z" fill="#D1D1D1"/>
</svg>
