<svg width="16" height="17" viewBox="0 0 16 17" fill="none" xmlns="http://www.w3.org/2000/svg">
<path fill-rule="evenodd" clip-rule="evenodd" d="M8.002 0.491394H7.998C3.587 0.491394 0 4.07939 0 8.49139C0 10.1032 0.478459 11.6065 1.30333 12.8628L0.526 16.1524L3.98592 15.409C5.16761 16.099 6.53696 16.4914 8.002 16.4914C12.413 16.4914 16 12.9024 16 8.49139C16 4.08039 12.413 0.491394 8.002 0.491394ZM9.06372 10.3122C8.40909 10.0633 7.81575 9.67111 7.32537 9.16312C6.824 8.68106 6.43401 8.09108 6.18369 7.43598L6.90488 6.55082C6.92376 6.52479 6.93395 6.49325 6.93395 6.46086C6.93395 6.42847 6.92376 6.39694 6.90488 6.37091L5.81018 4.71333C5.7721 4.6523 5.72099 4.60086 5.66067 4.56286C5.60036 4.52486 5.53241 4.50128 5.46191 4.4939C5.39141 4.48651 5.32018 4.49551 5.25357 4.52022C5.18696 4.54493 5.12668 4.5847 5.07726 4.63657L4.27856 5.42338C4.16731 5.53057 4.08506 5.6653 4.03979 5.8145C3.99451 5.96369 3.98775 6.1223 4.02015 6.27495C4.34815 7.80752 5.10462 9.20996 6.19779 10.3122C7.31577 11.4035 8.71187 12.1516 10.2265 12.4711C10.3784 12.5035 10.5357 12.497 10.6845 12.4522C10.8333 12.4075 10.9689 12.3257 11.0793 12.2144L11.8498 11.4372C11.9032 11.3866 11.9443 11.324 11.9699 11.2544C11.9956 11.1848 12.005 11.11 11.9975 11.036C11.99 10.962 11.9657 10.8909 11.9266 10.8281C11.8875 10.7653 11.8347 10.7127 11.7723 10.6744L10.1279 9.59251C10.1016 9.57405 10.0705 9.56416 10.0386 9.56416C10.0067 9.56416 9.9756 9.57405 9.94934 9.59251L9.06372 10.3122Z" fill="#56B77F"/>
</svg>
