<svg width="30" height="30" viewBox="0 0 30 30" fill="none" xmlns="http://www.w3.org/2000/svg">
<path d="M25.142 7.45917C24.35 6.42217 22.8815 6 20.082 6H9.918C7.0525 6 5.562 6.4505 4.77 7.55408C4 8.63075 4 10.2146 4 12.409V16.591C4 20.841 4.91575 23 9.918 23H20.082C22.5103 23 23.8564 22.6274 24.7267 21.7108C25.6191 20.7744 26 19.243 26 16.591V12.409C26 10.0956 25.9409 8.50042 25.142 7.45917ZM18.124 15.078L13.5081 17.7272C13.4009 17.7886 13.2794 17.8187 13.1568 17.8142C13.0342 17.8097 12.9151 17.7708 12.8124 17.7017C12.7061 17.6287 12.6192 17.5296 12.5594 17.4134C12.4996 17.2971 12.4689 17.1674 12.47 17.0358V11.7545C12.47 11.4825 12.5992 11.2303 12.811 11.0887C12.9137 11.0194 13.0328 10.9804 13.1554 10.9759C13.2781 10.9714 13.3996 11.0016 13.5068 11.0632L18.1226 13.6953C18.3564 13.8285 18.5049 14.0948 18.5049 14.3852C18.5068 14.5252 18.4726 14.6631 18.4056 14.7849C18.3387 14.9066 18.2415 15.0078 18.124 15.078Z" fill="#D1D1D1"/>
</svg>
