<svg width="30" height="30" viewBox="0 0 30 30" fill="none" xmlns="http://www.w3.org/2000/svg">
<g clip-path="url(#clip0)">
<path fill-rule="evenodd" clip-rule="evenodd" d="M14.8898 5C10.7679 5.00039 7.91176 5.01411 6.44568 6.44577C5.01409 7.91152 5.00038 10.9018 5.00038 14.8896C9.4284 14.756 11.4533 14.6451 13.0683 13.0681C14.6453 11.4531 14.7562 9.42821 14.8898 5ZM6.44543 23.5544C5.01384 22.0886 5.00012 19.0984 5.00012 15.1105C9.42815 15.2442 11.4531 15.355 13.0681 16.9321C14.645 18.5471 14.7559 20.572 14.8896 24.9998C10.7677 24.9998 7.91151 24.9865 6.44543 23.5544ZM15.1106 24.9998C15.2442 20.572 15.3552 18.5471 16.9322 16.9321C18.5471 15.355 20.572 15.2442 25.0001 15.1105C24.9997 19.0984 24.9859 22.0886 23.5544 23.5544C22.0883 24.9865 19.2326 24.9998 15.1106 24.9998ZM15.1106 5C15.2442 9.42821 15.3552 11.4531 16.9322 13.0681C18.5471 14.6451 20.572 14.756 25.0001 14.8896C24.9997 10.9018 24.9859 7.91152 23.5544 6.44577C22.0883 5.01411 19.2326 5.00039 15.1106 5Z" fill="#D1D1D1"/>
</g>
<defs>
<clipPath id="clip0">
<rect width="20" height="20" fill="white" transform="translate(5 5)"/>
</clipPath>
</defs>
</svg>
